<svg width="256px" height="207px" viewBox="133 0 256 207" version="1.1" xmlns="http://www.w3.org/2000/svg" xmlns:xlink="http://www.w3.org/1999/xlink">
    <!-- Generator: Sketch 42 (36781) - http://www.bohemiancoding.com/sketch -->
    <desc>Created with Sketch.</desc>
    <defs></defs>
    <g id="Page-1" stroke="none" stroke-width="1" fill="none" fill-rule="evenodd" transform="translate(134.000000, 0.000000)">
        <path d="M0.214488432,160.847297 L21.4142314,85.5122966 C21.9111208,83.7452966 23.2287301,82.3268483 24.9547326,81.7011586 L95.7450925,56.0406759 C96.5297584,55.7569862 97.3662108,55.6482276 98.1967635,55.7222621 L172.445684,59.5537103 C174.796404,59.7640207 176.773473,61.4012966 177.416545,63.6701586 L195.387817,124.996917 C195.996147,127.139331 197.797535,128.730745 200.000105,129.070124 L250.062702,136.7874 C252.84017,137.215883 254.890003,139.604641 254.890003,142.414021 C254.890003,144.131883 254.113203,145.758021 252.777239,146.839055 L185.198306,201.509917 C179.636159,206.010297 172.302123,207.679676 165.33846,206.031917 L4.38429563,167.9284 C1.23317738,167.182159 -0.662606684,163.963297 0.214488432,160.847297" id="Fill-1" fill="#14B445"></path>
        <path d="M152.070135,132.596131 C144.135636,136.052821 135.720636,133.282097 126.758271,123.430924 C126.404942,123.042407 125.897564,122.67289 125.933618,121.697338 C125.970328,120.690993 126.482294,121.243959 126.833657,121.481131 C133.999222,126.320234 140.810148,127.799614 147.292654,126.147269 C154.296305,124.363234 160.174415,118.884028 164.945996,109.769924 C165.145932,109.387303 165.349145,109.015166 165.653965,108.9372 C166.205919,108.795683 166.679865,109.788269 166.647744,111.019338 C166.6366,111.456338 166.545482,111.776717 166.453053,112.102338 C164.54678,118.826372 161.823721,123.6812 158.614916,127.4242 C157.57394,128.639545 156.477243,129.680614 155.333348,130.562476 C154.281228,131.37489 153.199608,132.074614 152.070135,132.596131" id="Fill-4" fill="#FFFFFF"></path>
        <path d="M164.61797,105.453845 C163.671389,105.942603 162.78905,106.671155 161.890978,107.339431 C161.691698,107.4875 161.476685,107.9245 161.219063,107.254914 C160.971929,106.610879 161.161377,106.159466 161.287893,105.754569 C162.081081,103.228879 163.299706,101.839914 164.705156,100.981638 C165.660914,100.397224 166.668459,100.067017 167.78941,100.320569 C168.317109,100.43981 168.681582,101.034707 168.923472,102.135397 C170.243048,108.138086 170.645541,113.730638 169.861531,118.765638 C169.780901,119.283224 169.711415,120.071397 169.325965,119.718259 C168.912983,119.34219 169.011968,118.5265 168.971981,117.925707 C168.749757,114.649845 168.551132,111.3825 168.010323,108.022776 C167.948048,107.63819 167.873973,107.250328 167.786788,106.872948 C167.469513,105.496431 167.167315,105.020776 166.538665,104.925776 C165.84315,104.821603 165.232199,105.147879 164.61797,105.453845" id="Fill-6" fill="#FFFFFF"></path>
        <path d="M177.480131,63.9975483 C176.847548,61.7679966 174.924887,60.1556172 172.62792,59.9007552 L85.9220206,99.8138586 L85.9220206,111.143755 L177.916712,65.4861 L177.480131,63.9975483 Z" id="Fill-8" fill="#1FAB49"></path>
        <path d="M195.5654,125.087921 L195.020001,123.163679 L106.590721,180.738266 L106.590721,188.657334 L198.671287,128.705128 C197.179963,128.021128 196.027546,126.715369 195.5654,125.087921" id="Fill-10" fill="#1FAB49"></path>
        <path d="M254.201765,139.799228 L180.881726,199.127055 L180.881071,199.119848 C178.552639,200.442641 175.785004,200.83509 173.375942,200.853434 L173.375942,206.653021 C173.421829,206.6504 173.465749,206.64909 173.512292,206.645814 C177.059348,206.412572 180.966945,204.287848 180.968256,204.287193 L180.968911,204.293745 C180.968911,204.293745 184.197382,202.408814 185.198371,201.598366 L252.77796,146.926848 C254.113269,145.845814 254.890068,144.219676 254.890068,142.501814 C254.890068,141.528883 254.639001,140.60771 254.201765,139.799228" id="Fill-12" fill="#139246"></path>
        <path d="M173.376073,200.788441 C170.140392,200.812028 167.551716,200.15751 167.551716,200.15751 L115.77885,187.392786 C110.708348,186.142717 107.053785,181.724234 106.778464,176.512338 L102.802693,101.141959 C102.592924,97.1762 99.6122429,93.9082 95.6797365,93.3349241 L29.4518445,83.6829241 C25.3069473,83.0788552 21.3573972,85.6418897 20.2233355,89.6718552 L0.959363753,158.126234 C-0.323502571,162.687545 2.45134319,167.39889 7.06428663,168.491062 L107.611639,192.294131 L165.741806,206.051441 C165.741806,206.051441 168.55205,206.887441 173.376073,206.589338 L173.376073,200.788441 Z" id="Fill-15" fill="#096624"></path>
        <path d="M105.859099,2.12922013 C102.655149,2.12922013 100.385684,2.93020758 98.6502115,4.17618805 L98.6502115,7.86963017 L98.8282087,7.95862878 C101.053174,6.40115319 102.922145,5.60016574 105.725601,5.60016574 C109.063048,5.60016574 110.576025,7.46913645 110.576025,9.9165981 C110.576025,12.7200542 109.419043,14.1885312 107.461073,15.8795047 C104.47962,18.5049635 103.278139,20.2404363 103.278139,23.7113819 L103.278139,25.0018617 L106.927082,25.0018617 L106.927082,23.7113819 C106.927082,21.219421 108.217562,19.9734405 110.042033,18.3714656 C112.533994,16.1465005 114.447464,13.8325367 114.447464,9.9165981 C114.447464,4.75467899 110.665023,2.12922013 105.859099,2.12922013 Z M107.283076,29.896785 L102.966644,29.896785 L102.966644,34.0352201 L107.283076,34.0352201 L107.283076,29.896785 Z" id="?" fill="#68BEA5" transform="translate(106.548838, 18.082220) rotate(-8.000000) translate(-106.548838, -18.082220) "></path>
        <path d="M136.859099,2.12922013 C133.655149,2.12922013 131.385684,2.93020758 129.650211,4.17618805 L129.650211,7.86963017 L129.828209,7.95862878 C132.053174,6.40115319 133.922145,5.60016574 136.725601,5.60016574 C140.063048,5.60016574 141.576025,7.46913645 141.576025,9.9165981 C141.576025,12.7200542 140.419043,14.1885312 138.461073,15.8795047 C135.47962,18.5049635 134.278139,20.2404363 134.278139,23.7113819 L134.278139,25.0018617 L137.927082,25.0018617 L137.927082,23.7113819 C137.927082,21.219421 139.217562,19.9734405 141.042033,18.3714656 C143.533994,16.1465005 145.447464,13.8325367 145.447464,9.9165981 C145.447464,4.75467899 141.665023,2.12922013 136.859099,2.12922013 Z M138.283076,29.896785 L133.966644,29.896785 L133.966644,34.0352201 L138.283076,34.0352201 L138.283076,29.896785 Z" id="?-copy" fill="#68BEA5" transform="translate(137.548838, 18.082220) rotate(24.000000) translate(-137.548838, -18.082220) "></path>
    </g>
</svg>
