
<svg width="382px" height="384px" viewBox="1074 2292 382 384" version="1.1" xmlns="http://www.w3.org/2000/svg" xmlns:xlink="http://www.w3.org/1999/xlink">
    <!-- Generator: Sketch 42 (36781) - http://www.bohemiancoding.com/sketch -->
    <desc>Created with Sketch.</desc>
    <defs></defs>
    <g id="Page-1" stroke="none" stroke-width="1" fill="none" fill-rule="evenodd" transform="translate(1264.535165, 2484.077743) scale(-1, 1) rotate(41.000000) translate(-1264.535165, -2484.077743) translate(1132.035165, 2346.077743)">
        <polygon id="Fill-1" fill="#0D742C" points="186.242556 221.990193 104.430461 52.717631 112.761696 48.55949 194.573791 217.833938"></polygon>
        <g id="Group-35" transform="translate(-0.000000, 0.099992)">
            <path d="M25.4506508,248.835483 C42.9208066,260.908053 68.7129137,274.193729 97.6633516,274.223915 C131.541603,274.257874 159.1329,256.393338 179.672263,221.118945 C186.56266,209.280318 189.552027,206.729589 175.416593,197.822791 C161.257021,188.883919 172.952686,190.896958 166.060432,202.735585 C153.783605,223.824378 107.634096,233.163216 92.2787781,233.150009 C69.7099881,233.123596 40.887666,197.924669 40.6592858,197.700159 C28.9617641,185.838892 18.2037576,186.836922 9.49374576,197.383205 C1.64340896,206.876746 -3.24169892,218.847438 2.51608122,229.961598 C3.70254414,232.250085 12.7152061,240.03245 25.4506508,248.835483" id="Fill-2" fill="#00C000"></path>
            <path d="M63.8640124,219.769625 C66.030839,222.599576 77.3365866,229.016017 77.3365866,229.016017 C77.3365866,229.016017 79.8134904,233.334522 81.7537936,237.751132 C85.2927581,245.808945 89.474158,256.319382 90.7478881,256.558985 C129.971721,263.93761 172.001102,224.997487 179.004761,196.788538 C183.293852,204.804845 183.875015,213.89276 179.671334,221.118568 C159.133828,256.392961 131.540674,274.257497 97.6624232,274.221651 C68.7082718,274.193351 50.8983308,247.946501 49.5503307,245.712727 C46.9898731,241.465914 62.2059351,224.903155 63.8640124,219.769625" id="Fill-4" fill="#0D742C"></path>
            <path d="M217.728746,203.409891 C212.769817,193.346759 200.291622,166.248543 200.264007,166.22241 L196.624698,162.6907 C189.805678,156.400076 176.171583,158.139798 165.498249,166.890672 C155.570529,175.023683 151.613643,186.415873 155.608007,193.839556 L155.590254,193.850756 C155.590254,193.850756 173.297614,236.10247 175.092612,238.062457 C181.629561,245.209875 195.904726,243.645619 206.974538,234.566214 C218.04435,225.496142 221.914444,211.919967 217.728746,203.409891" id="Fill-6" fill="#00B23B"></path>
            <path d="M159.391747,173.05634 C153.130952,180.517325 151.087416,189.267794 154.348,195.364217 L154.33222,195.375479 C154.33222,195.375479 172.037607,237.858987 173.832605,239.83169 C177.426546,243.780851 183.353984,245.066581 189.804142,243.929132 L159.391747,173.05634 Z" id="Fill-8" fill="#0D742C"></path>
            <path d="M206.845121,236.056847 C196.391003,244.499023 183.741025,246.843644 178.588402,241.297084 C173.439914,235.762083 177.734456,224.428144 188.192709,215.987894 C198.644759,207.55535 211.296805,205.208803 216.44736,210.74573 C221.602051,216.290363 217.299239,227.622376 206.845121,236.056847" id="Fill-10" fill="#00B23B"></path>
            <path d="M205.154348,234.672636 C196.741016,241.431339 187.113965,243.863317 183.638218,240.110408 C180.162472,236.363275 184.167541,227.844613 192.578805,221.089761 C200.992137,214.332983 210.625391,211.901005 214.099069,215.650064 C217.57068,219.399122 213.565612,227.917784 205.154348,234.672636" id="Fill-12" fill="#0D742C"></path>
            <path d="M202.027362,233.057815 C198.770788,235.674651 195.044855,236.616249 193.700872,235.162452 C192.352754,233.712505 193.903503,230.415947 197.160077,227.801037 C200.41665,225.186127 204.142584,224.244528 205.488634,225.694475 C206.832617,227.146347 205.283935,230.44483 202.027362,233.057815" id="Fill-14" fill="#FFFFFF"></path>
            <path d="M189.961486,158.987041 C186.345847,157.753111 182.324502,158.935168 177.795584,160.081227 L198.804951,208.957953 C204.107099,206.996752 209.097588,206.753705 212.523864,208.483077 L189.961486,158.987041 Z" id="Fill-16" fill="#FFFFFF"></path>
            <g id="Group-20" transform="translate(113.863793, 0.000000)" fill="#00B23B">
                <path d="M41.1203314,131.447047 C96.0021325,137.601246 85.5986334,66.8436133 150.69627,76.7295746 C137.46693,49.6073265 125.96251,28.4166551 112.73317,1.29629362 C42.8915386,-6.97470915 55.4134571,57.6047673 0.520515507,52.0241044 C13.4917674,78.6048887 25.2111935,104.657052 38.1824453,131.24161 L41.1203314,131.447047 Z" id="Fill-18"></path>
            </g>
            <path d="M116.437507,46.0786563 C116.437507,51.890624 111.800167,56.6026025 106.080261,56.6026025 C100.361468,56.6026025 95.7241271,51.890624 95.7241271,46.0786563 C95.7241271,40.2666886 100.361468,35.5547101 106.080261,35.5547101 C111.800167,35.5547101 116.437507,40.2666886 116.437507,46.0786563" id="Fill-21" fill="#0D742C"></path>
            <path d="M214.574325,60.7018655 C214.184408,60.4188704 213.835339,60.2547332 213.592105,59.9962644 C212.687868,59.0359678 211.809625,58.0983108 210.93881,57.1908399 C210.34465,56.5701373 209.822903,55.8777427 209.184182,55.3589184 C208.901956,55.1306357 208.411774,55.1815748 208.016286,55.1683684 C207.984721,55.1664818 207.895597,55.5947476 207.964297,55.7852977 C208.422914,57.0795285 208.066418,57.6681582 206.75741,57.8058825 C206.523459,57.8304088 206.278369,57.8266355 206.040705,57.7964493 C204.811536,57.6474053 203.820032,57.0399092 203.034627,56.2003571 C201.883443,54.9664986 200.847376,53.660948 199.74261,52.4572756 C199.21715,51.8856255 198.728825,51.223417 198.065966,50.8725031 C195.941844,49.7480694 193.617194,49.1481198 191.13472,49.0160554 C190.39759,48.9764361 189.716163,49.2047188 189.042163,49.729203 C188.353309,50.2631204 187.649601,50.764965 186.955177,51.2781294 C186.451998,50.553662 186.476135,49.6480778 187.17056,48.8405985 C187.757293,48.1614103 188.442433,47.5275013 189.159138,47.0181102 C190.304753,46.204971 191.51164,45.5238962 192.690676,44.8013154 C193.342395,44.401349 193.554064,43.9787431 193.392527,43.3221945 C193.286692,42.8882687 193.138153,42.4750959 193.00818,42.0524899 C192.867067,41.5996978 192.978472,41.1563388 193.388814,40.7808987 C194.656974,39.614959 195.904709,38.4471326 197.215574,37.4000509 C198.093817,36.6982231 198.769674,36.9189592 199.152164,37.8603895 C199.21158,38.0037737 199.265426,38.1509311 199.315558,38.2980886 C199.447387,38.6640955 199.707332,38.7716337 200.067542,38.5603307 C201.109178,37.9471747 202.143387,37.3472251 203.196164,36.7850082 C199.783459,33.9890169 190.202632,32.8457168 187.389656,34.534254 C188.173204,34.5078412 188.422009,34.9229006 188.323601,35.6492546 C188.308747,35.7492462 188.336598,35.8492378 188.358879,35.9435695 C188.566835,36.837834 188.774791,36.9227325 189.71802,36.7925548 C190.117221,36.7359557 190.570268,36.7736884 190.872918,36.9529186 C191.493072,37.3151523 191.322252,38.1528178 190.596262,38.6093831 C190.072659,38.9357708 189.552769,39.2810248 189.021739,39.5998659 C185.924681,41.4638602 182.833193,43.371247 179.726851,45.0880838 C179.33879,45.30316 178.891314,45.4522041 178.484686,45.49371 C178.230311,45.5201229 177.860818,45.3616457 177.792118,45.1597759 C177.715991,44.9333798 177.864531,44.5334134 178.024212,44.2655114 C178.196889,43.9749698 178.488399,43.7334807 178.742774,43.4882183 C180.174328,42.1090889 181.624449,40.6997734 183.054146,39.2527253 C183.327088,38.9791634 183.549898,38.6508891 183.796846,38.347141 C183.759711,38.2980886 183.726289,38.2490361 183.691011,38.198097 C183.392074,38.3433678 183.072714,38.4471326 182.799771,38.6376827 C180.408278,40.3243333 178.014928,41.9468384 175.642002,43.4599188 C174.650498,44.0938277 173.881804,44.8899872 173.896658,46.169125 C173.898514,46.3842012 173.837242,46.6615364 173.699842,46.8200136 C173.408333,47.1577211 173.075974,47.5803271 172.706481,47.6916385 C172.201445,47.8425692 171.586861,47.8727553 171.117104,47.6878652 C169.837803,47.1860206 168.65134,47.3633642 167.438883,47.8067231 C167.13809,47.9161479 166.774167,47.9746335 166.456662,47.9010548 C166.016613,47.8029499 165.799373,47.9652004 165.570993,48.2614019 C163.981615,50.3083996 162.711599,52.4516157 161.870491,54.8702803 C161.662535,55.4721164 161.47686,56.1380982 161.526993,56.8229463 C161.801792,60.7112986 162.765445,64.6279505 165.478156,67.7956087 C165.674971,68.0276647 165.862503,68.2672672 166.064888,68.4861167 C166.534646,68.9936212 166.696183,69.5671579 166.70361,70.2180466 C166.720321,71.766973 166.18372,73.0762969 165.346326,74.219597 C164.882139,74.8572792 164.399384,75.4685486 163.968618,76.1118907 C163.587985,76.6854274 163.584271,77.321223 163.985329,78.0853097 C167.073103,83.9810405 171.375192,88.0618295 176.958438,89.5749098 C177.246234,89.6522618 177.625011,89.6164158 177.931374,89.4918979 C180.658939,88.3863305 183.369793,87.0260675 186.190196,86.2412278 C189.12943,85.4243154 191.853282,85.3563965 194.283767,86.5845952 C194.467585,86.6770402 194.820368,86.6015749 195.054318,86.482717 C201.89087,82.9811245 207.151041,78.8173236 210.814408,73.2649602 C213.287598,69.5162188 214.490772,65.4410897 214.574325,60.7018655 M156.569471,63.6091682 L156.569471,60.1396486 C156.608463,59.9585317 156.660452,59.7830748 156.688303,59.596298 C156.899973,58.2096222 157.013235,56.7550275 157.327025,55.4324971 C160.325676,42.7448845 172.22744,34.596513 186.167915,30.8100388 C193.710031,28.7611545 200.526159,29.4346828 206.469614,34.3795501 C212.957096,39.7809828 216.832133,48.4387455 218.068728,57.2455523 C218.20427,58.2266019 218.306392,59.1963317 218.423367,60.173608 L218.423367,63.5752088 C218.386232,63.7317994 218.321246,63.8789569 218.308248,64.0487539 C217.96475,68.8992895 216.535053,72.8121681 213.878044,76.3156472 C208.760843,83.0603632 201.441536,88.0410765 191.921982,91.8350972 C191.015888,92.1973309 190.096797,92.5237185 189.185133,92.8708591 C188.058086,93.1557409 186.929182,93.4425092 185.802135,93.7273909 C185.191265,93.8009696 184.578537,93.8688885 183.96581,93.9443538 C177.086553,94.8008856 171.126387,92.8029403 166.133588,87.4184873 C161.01453,81.8925368 157.932326,74.219597 156.909257,66.5240175 C156.781141,65.5486278 156.682733,64.5807847 156.569471,63.6091682" id="Fill-29" fill="#0D742C"></path>
            <path d="M191.783839,52.4506723 C191.414346,52.3808669 191.065277,52.3110614 190.712495,52.2525758 C186.525525,51.5564079 181.278351,55.2334573 179.761387,59.8651434 C179.403034,60.9631643 179.555287,61.8857282 180.346263,62.4517184 C180.905144,62.8497981 181.540153,63.2195783 182.230863,63.3384363 C183.857376,63.6138848 185.51731,63.7817952 187.199525,63.8270744 C188.309861,63.8572606 188.907734,64.349672 189.227095,65.3420414 C189.919663,67.492804 190.157327,69.8265701 190.419129,72.1584495 C190.569525,73.5149392 190.706925,74.9016151 191.078275,76.1524533 C191.462622,77.4447975 192.502401,77.5259228 193.73157,76.5165737 C194.41671,75.9562434 195.112991,75.3279943 195.618027,74.61862 C197.172126,72.4433312 198.724369,70.3095483 200.107647,68.1436927 C201.2774,66.3136578 202.410017,64.5515418 204.354033,63.6402977 C205.588772,63.0629877 205.462513,61.8536554 205.592485,60.7914806 C205.609196,60.6480964 205.367819,60.4179271 205.198854,60.3141622 C204.528568,59.9085359 203.856425,59.5142295 203.15086,59.212368 C202.311609,58.8557942 201.724876,58.2765977 201.297824,57.5106243 C201.06016,57.0842451 200.870771,56.6239064 200.597829,56.2314866 C200.118788,55.5428652 199.602611,54.88443 199.073438,54.2486344 C198.967603,54.1203433 198.748507,54.0505378 198.566545,54.0411047 C197.857267,53.9995987 197.127564,54.0656309 196.43314,53.9995987 C195.140842,53.8713076 193.857829,53.7411299 192.595239,53.5675596 C192.064209,53.4939809 191.58331,53.2392853 191.783839,52.4506723 M214.573583,60.7028088 C214.490029,65.442033 213.286855,69.5152755 210.813665,73.2640169 C207.150298,78.818267 201.890127,82.9801812 195.055432,86.4817736 C194.821482,86.6006316 194.466842,86.6760969 194.284881,86.5836519 C191.852539,85.3573399 189.128688,85.423372 186.189453,86.2402845 C183.370908,87.0251242 180.660053,88.3853872 177.930632,89.4928413 C177.624268,89.6173591 177.245491,89.6532051 176.959552,89.5758531 C171.376306,88.0627728 167.072361,83.9800972 163.984586,78.086253 C163.583528,77.3202797 163.587242,76.6844841 163.969732,76.112834 C164.398641,75.4676053 164.883253,74.8582225 165.34744,74.2205403 C166.182978,73.0772402 166.719578,71.7660296 166.702867,70.2189899 C166.69544,69.5662146 166.533903,68.9945645 166.064146,68.48706 C165.86176,68.2663239 165.674228,68.0267214 165.477413,67.796552 C162.764702,64.6288938 161.802906,60.712242 161.52625,56.822003 C161.477974,56.1371549 161.661793,55.4711731 161.871605,54.8712236 C162.712713,52.452559 163.980873,50.3074563 165.572107,48.2604586 C165.800487,47.9642571 166.01587,47.8020066 166.45592,47.9019981 C166.773424,47.9736902 167.139204,47.9170912 167.439997,47.8057798 C168.648741,47.3624209 169.837061,47.1831907 171.116361,47.6888085 C171.586119,47.871812 172.200703,47.8435125 172.707595,47.6906952 C173.077088,47.5793838 173.409447,47.1586644 173.700956,46.8190703 C173.836499,46.6605931 173.897772,46.3832579 173.895915,46.1681816 C173.882918,44.8928172 174.649755,44.0928844 175.643116,43.4589754 C178.014185,41.9458951 180.407535,40.3252766 182.799029,38.638626 C183.073828,38.4461893 183.391332,38.3443111 183.692125,38.1990403 C183.725547,38.2499794 183.760825,38.2990319 183.796103,38.3461977 C183.549155,38.6499458 183.326346,38.9782201 183.05526,39.2536686 C181.623706,40.6988301 180.179155,42.1081456 178.743888,43.4891616 C178.489513,43.734424 178.198003,43.9740265 178.025326,44.2645681 C177.865645,44.5343567 177.717105,44.9324365 177.793232,45.1607192 C177.860075,45.362589 178.229568,45.5210662 178.483943,45.4946534 C178.892428,45.4531474 179.339904,45.3022167 179.727965,45.0890271 C182.83245,43.3721903 185.925795,41.4685767 189.022853,39.5989226 C189.553883,39.2819681 190.071916,38.9367141 190.59552,38.6084398 C191.321509,38.1518744 191.494187,37.3160956 190.874032,36.9538619 C190.571382,36.7746317 190.118335,36.7368991 189.719134,36.7934981 C188.775905,36.9236758 188.567949,36.8387773 188.358137,35.9426262 C188.337712,35.8501811 188.309861,35.7501896 188.324715,35.6483113 C188.421266,34.9219573 188.174318,34.5087845 187.39077,34.5351974 C190.201889,32.8447734 199.784573,33.9880735 203.195422,36.7859515 C202.142645,37.3481684 201.108435,37.948118 200.066799,38.5593873 C199.708446,38.772577 199.444788,38.6669255 199.316672,38.2971452 C199.262826,38.1499878 199.210837,38.0028304 199.153278,37.8613328 C198.770788,36.9199025 198.093074,36.6991664 197.216688,37.3991075 C195.905823,38.4461893 194.658088,39.6140157 193.388071,40.781842 C192.979586,41.1572822 192.866324,41.5987545 193.007437,42.0534332 C193.13741,42.4760392 193.287807,42.8873254 193.391784,43.3212512 C193.553322,43.9796864 193.343509,44.4004057 192.689933,44.8003721 C191.512754,45.5229529 190.30401,46.2040277 189.158396,47.0171669 C188.44169,47.526558 187.75655,48.160467 187.171674,48.8415418 C186.477249,49.6490211 186.451255,50.5527187 186.954434,51.2790727 C187.648858,50.7659083 188.352566,50.2621771 189.04142,49.7301463 C189.717277,49.2056621 190.398704,48.9773794 191.133977,49.0169987 C193.616451,49.1490631 195.941102,49.7490127 198.06708,50.8734465 C198.728082,51.2224737 199.216408,51.8865688 199.741868,52.4582189 C200.84849,53.6618913 201.8827,54.9674419 203.035741,56.1994138 C203.81929,57.0408525 204.810794,57.6502352 206.041819,57.7973927 C206.279483,57.8275788 206.522717,57.8313521 206.756667,57.8049392 C208.065676,57.6653283 208.422172,57.0785852 207.965411,55.786241 C207.896711,55.595691 207.985835,55.1674251 208.015543,55.1674251 C208.407318,55.1844048 208.90307,55.131579 209.183439,55.3598617 C209.824017,55.878686 210.343907,56.569194 210.938067,57.1917832 C211.808883,58.0992541 212.688982,59.0350245 213.591362,59.9972077 C213.834596,60.2556766 214.183665,60.4179271 214.573583,60.7028088" id="Fill-31" fill="#FFFFFF"></path>
            <path d="M191.783839,52.4506723 C191.58331,53.2392853 192.064209,53.4939809 192.595239,53.5675596 C193.855972,53.7430165 195.140842,53.8713076 196.43314,53.9995987 C197.127564,54.0656309 197.857267,53.9995987 198.566545,54.0411047 C198.748507,54.0505378 198.967603,54.1203433 199.073438,54.2486344 C199.598898,54.88443 200.118788,55.5409786 200.597829,56.2314866 C200.872628,56.6239064 201.06016,57.0842451 201.297824,57.5106243 C201.724876,58.2765977 202.311609,58.8557942 203.15086,59.212368 C203.856425,59.5142295 204.528568,59.9085359 205.198854,60.3141622 C205.367819,60.4179271 205.609196,60.6480964 205.592485,60.7914806 C205.462513,61.8536554 205.588772,63.0629877 204.354033,63.6402977 C202.410017,64.5515418 201.2774,66.3136578 200.107647,68.1436927 C198.724369,70.3095483 197.172126,72.4433312 195.618027,74.61862 C195.112991,75.3279943 194.414853,75.9562434 193.73157,76.5165737 C192.502401,77.5240361 191.462622,77.4447975 191.078275,76.1524533 C190.706925,74.9016151 190.569525,73.5149392 190.419129,72.1584495 C190.159184,69.8284567 189.919663,67.4946906 189.227095,65.3420414 C188.905878,64.3477854 188.309861,63.8572606 187.199525,63.8270744 C185.51731,63.7817952 183.857376,63.6138848 182.230863,63.3384363 C181.540153,63.2195783 180.905144,62.8497981 180.346263,62.4517184 C179.555287,61.8857282 179.403034,60.9631643 179.761387,59.8651434 C181.278351,55.2334573 186.525525,51.5564079 190.712495,52.2525758 C191.065277,52.3110614 191.414346,52.3808669 191.783839,52.4506723" id="Fill-33" fill="#0D742C"></path>
        </g>
    </g>
</svg>
