
<svg width="347px" height="375px" viewBox="-112 2771 347 375" version="1.1" xmlns="http://www.w3.org/2000/svg" xmlns:xlink="http://www.w3.org/1999/xlink">
    <!-- Generator: Sketch 42 (36781) - http://www.bohemiancoding.com/sketch -->
    <desc>Created with Sketch.</desc>
    <defs>
        <polygon id="path-1" points="159.674931 0.62002925 159.674931 348.049404 -0.000128921414 348.049404 -0.000128921414 0.62002925"></polygon>
    </defs>
    <g id="Page-1" stroke="none" stroke-width="1" fill="none" fill-rule="evenodd" transform="translate(61.302745, 2958.346175) rotate(39.000000) translate(-61.302745, -2958.346175) translate(-18.697255, 2783.346175)">
        <g id="Group-3" transform="translate(0.000000, 0.397174)">
            <mask id="mask-2" fill="white">
                <use xlink:href="#path-1"></use>
            </mask>
            <g id="Clip-2"></g>
            <path d="M143.147183,19.3049791 C141.613652,17.5626182 139.299645,21.0241367 137.576269,19.4526368 L127.575623,57.5841841 L93.7388057,71.3501009 L74.1214251,45.9234443 C72.4233615,43.7212351 71.8517152,40.8503475 72.575238,38.1650867 L81.1330566,6.46719648 C81.9367364,3.48451087 78.36342,-0.622482691 74.6297894,0.978548697 C55.727494,9.07862844 40.6769552,24.1397142 34.9140859,45.4825806 C29.6342683,65.0514451 28.3686309,84.552809 40.1917941,100.170775 C41.4827444,101.875167 42.9023677,103.40026 44.3789447,104.813555 L40.6980491,104.197612 L47.9923397,114.841623 C52.2491003,121.091763 53.5780197,128.888089 51.628938,136.199255 L24.9682849,236.197271 C24.8712527,236.557977 24.8839091,236.916575 24.9493003,237.260406 L0.29890138,328.721697 C-0.456262305,331.522975 0.22929132,334.556286 2.23743609,336.648807 C5.32559149,339.863526 9.57813336,342.734413 14.7271684,344.833262 C23.6182716,348.463532 33.0683646,348.933928 40.1685908,346.681093 C42.8285389,345.835225 44.8155897,343.599266 45.5412218,340.901348 L86.8853789,188.915165 L99.7252709,141.266024 C102.155295,132.246247 108.852626,125.006801 117.646697,121.855364 C136.55743,115.073656 151.95602,99.4641277 157.590216,78.5979848 C163.350975,57.2487902 156.744348,34.7563031 143.147183,19.3049791" id="Fill-1" fill="#15B445" mask="url(#mask-2)"></path>
        </g>
        <path d="M135.937479,18.0110503 L125.808161,52.8435026 C125.422141,54.1808595 124.443381,55.2714171 123.152431,55.8008755 L91.4039155,68.8306131 L95.4180957,74.0977744 C96.6141231,75.6671648 98.7235188,76.2303735 100.546037,75.4646628 L131.60478,62.407503 C132.400022,62.0742185 132.994872,61.3928836 133.220577,60.5617817 L143.560835,22.2488264 C143.856151,21.1624876 143.54607,20.0044293 142.748718,19.2134059 C141.596988,18.0722228 139.685875,17.8380798 138.171329,17.4098725 C137.19046,17.1335416 136.220138,17.0322906 135.937479,18.0110503" id="Fill-4" fill="#0D742C"></path>
        <g id="Group-8" transform="translate(6.328187, 0.397174)" fill="#0D742C">
            <path d="M63.5938527,0.884891525 C50.4691922,4.36539454 30.4404794,15.9333209 22.1800856,46.5322159 C15.6894748,70.5835465 24.9729256,97.7778767 42.4724728,112.706071 L42.6517715,112.876932 C49.1908984,117.785496 52.0364733,126.001592 49.9270775,133.901279 L24.1776834,238.442933 L0.404793048,328.250458 C-0.348261241,331.051736 0.335182988,334.082938 2.34332776,336.177568 C3.69755984,337.586644 5.313357,338.913454 7.09368703,340.153779 L32.6764389,244.199475 L32.6764389,244.197365 L35.5557641,233.399368 C35.5557641,233.399368 35.5009198,233.388821 35.4207628,233.374055 L52.0702236,167.695909 L60.6913241,135.358872 C62.7965011,127.459185 60.0226456,115.67399 53.4814094,110.765426 C33.5792603,95.828795 26.6815361,73.3320892 33.6678549,47.4498031 C39.6543201,25.2652878 51.9035813,9.07989408 72.1622183,1.73919681 C73.594498,1.22028545 68.7323408,-0.477778141 63.5938527,0.884891525" id="Fill-6"></path>
        </g>
        <path d="M15.5884347,345.413321 C25.9413492,349.125857 36.4398119,348.879058 39.0406969,344.862768 C41.6436912,340.857026 35.3619107,334.596339 25.0068868,330.885912 C14.6603006,327.177594 4.15761906,327.426503 1.55884347,331.432245 C-1.0462603,335.446426 5.23973909,341.705003 15.5884347,345.413321" id="Fill-9" fill="#096623"></path>
        <path d="M17.3415535,343.027805 C24.7813924,345.848067 32.0988863,346.301587 33.685152,344.042424 C35.2714176,341.78959 30.5273865,337.674158 23.0833288,334.856006 C15.64349,332.037853 8.32599604,331.582223 6.74183981,333.839277 C5.1534648,336.09633 9.90171467,340.209652 17.3415535,343.027805" id="Fill-11" fill="#24B34B"></path>
    </g>
</svg>
