<?xml version="1.0" encoding="utf-8"?>
<!-- Generator: Adobe Illustrator 16.0.0, SVG Export Plug-In . SVG Version: 6.00 Build 0)  -->
<!DOCTYPE svg PUBLIC "-//W3C//DTD SVG 1.1//EN" "http://www.w3.org/Graphics/SVG/1.1/DTD/svg11.dtd">
<svg version="1.1" id="Layer_1" xmlns="http://www.w3.org/2000/svg" xmlns:xlink="http://www.w3.org/1999/xlink" x="0px" y="0px"
	 width="910.666px" height="1652px" viewBox="0 0 910.666 1652" enable-background="new 0 0 910.666 1652" xml:space="preserve">
<rect x="7" y="7" fill="none" stroke="#FFFFFF" stroke-width="14" stroke-miterlimit="10" width="848" height="1638"/>
<circle fill="#FFFFFF" cx="846" cy="293.333" r="64.666"/>
<circle fill="#FFFFFF" cx="846" cy="1321.334" r="64.666"/>
<circle fill="#FFFFFF" cx="846" cy="826.334" r="64.666"/>
<line fill="none" stroke="#FFFFFF" stroke-width="5" stroke-miterlimit="10" x1="7" y1="293.5" x2="846" y2="293.5"/>
<g>
	<g>
		<line fill="none" stroke="#FFFFFF" stroke-width="5" stroke-miterlimit="10" x1="7" y1="1321.5" x2="17" y2="1321.5"/>
		
			<line fill="none" stroke="#FFFFFF" stroke-width="5" stroke-miterlimit="10" stroke-dasharray="20,20" x1="37" y1="1321.5" x2="826" y2="1321.5"/>
		<line fill="none" stroke="#FFFFFF" stroke-width="5" stroke-miterlimit="10" x1="836" y1="1321.5" x2="846" y2="1321.5"/>
	</g>
</g>
<line fill="none" stroke="#FFFFFF" stroke-width="5" stroke-miterlimit="10" x1="7" y1="808.5" x2="846" y2="808.5"/>
<rect x="781.334" y="809" fill="none" width="129.332" height="81.83"/>
<g enable-background="new    ">
	<path fill="#363A46" d="M843.959,845.24v8.279h-27.479v-41.998h9.48v33.719H843.959z"/>
	<path fill="#363A46" d="M863.099,853.52h-10.02l15.479-34.078h-13.14v5.879h-8.399v-13.799h32.038v6.779L863.099,853.52z"/>
</g>
<rect x="781.334" y="276.17" fill="none" width="129.332" height="81.83"/>
<g enable-background="new    ">
	<path fill="#363A46" d="M830.609,312.41v8.279H803.13v-41.998h9.48v33.719H830.609z"/>
	<path fill="#363A46" d="M840.089,320.689v-34.019h-7.919v-7.979h17.399v41.998H840.089z"/>
	<path fill="#363A46" d="M890.668,281.631l-3.6,6.96c-2.521-1.74-5.76-2.7-8.999-2.7c-7.2,0-10.62,4.74-10.44,12.18
		c2.04-3.06,5.64-4.92,10.5-4.92c8.339,0,13.499,5.4,13.499,13.56c0,8.88-6.06,14.399-15.359,14.399
		c-11.039,0-17.818-7.859-17.818-20.759c0-13.38,7.439-22.079,19.019-22.079C881.969,278.271,887.188,279.591,890.668,281.631z
		 M868.769,306.83c-0.06,3.24,2.221,6.359,7.08,6.359c4.26,0,6.96-2.34,6.96-6.539c0-3.9-2.46-6.24-6.72-6.24
		C871.409,300.41,868.709,303.23,868.769,306.83z"/>
</g>
<rect x="781.334" y="1304.17" fill="none" width="129.332" height="81.83"/>
<g enable-background="new    ">
	<path fill="#363A46" d="M841.979,1340.41v8.279h-27.479v-41.998h9.479v33.719H841.979z"/>
	<path fill="#363A46" d="M869.099,1324.091c6.36,0.899,10.86,4.919,10.86,11.459c0,7.979-6.12,13.56-15.78,13.56
		c-5.579,0-11.398-1.979-15.179-4.92l3.84-7.5c3.12,3.181,6.84,4.86,10.62,4.86c4.619,0,7.26-2.22,7.199-5.88
		c0-3.779-2.58-5.699-7.26-5.699h-6.42v-5.28l9.84-10.26H851.04v-7.68h26.999v5.64l-10.979,11.46L869.099,1324.091z"/>
</g>
<rect x="180.5" y="333.333" fill="none" width="566" height="174.018"/>
<g enable-background="new    ">
	<path fill="#FFFFFF" d="M407.31,377.853v-16.56h-19.019v16.56h-9.48v-41.998h9.48v17.52h19.019v-17.52h9.479v41.998H407.31z"/>
	<path fill="#FFFFFF" d="M434.31,369.692l-3.3,8.16h-9.78l18.239-41.998h9.78l17.939,41.998H457.05l-3.3-8.16H434.31z
		 M444.09,345.754l-6.66,16.319h13.259L444.09,345.754z"/>
	<path fill="#FFFFFF" d="M506.368,342.514l-5.52,6.72c-2.88-3.3-7.02-5.459-10.92-5.459c-7.199,0-12.779,5.579-12.779,12.899
		c0,7.319,5.58,12.959,12.779,12.959c3.78,0,7.92-1.92,10.92-4.92l5.58,6.06c-4.439,4.561-10.859,7.5-16.979,7.5
		c-12.54,0-22.019-9.3-22.019-21.479c0-12.119,9.659-21.238,22.379-21.238C495.868,335.555,502.229,338.254,506.368,342.514z"/>
	<path fill="#FFFFFF" d="M527.608,360.753l-6.06,6.72v10.38h-9.479v-41.998h9.479v19.079l17.459-19.079h10.979l-15.779,17.52
		l16.859,24.479h-11.399L527.608,360.753z"/>
</g>
<rect x="336" y="849" fill="none" width="255" height="174.018"/>
<g enable-background="new    ">
	<path fill="#FFFFFF" d="M407.31,893.52v-16.56h-19.019v16.56h-9.48v-41.998h9.48v17.52h19.019v-17.52h9.479v41.998H407.31z"/>
	<path fill="#FFFFFF" d="M434.31,885.359l-3.3,8.16h-9.78l18.239-41.998h9.78l17.939,41.998H457.05l-3.3-8.16H434.31z
		 M444.09,861.421l-6.66,16.319h13.259L444.09,861.421z"/>
	<path fill="#FFFFFF" d="M506.368,858.181l-5.52,6.72c-2.88-3.3-7.02-5.459-10.92-5.459c-7.199,0-12.779,5.579-12.779,12.899
		c0,7.319,5.58,12.959,12.779,12.959c3.78,0,7.92-1.92,10.92-4.92l5.58,6.06c-4.439,4.561-10.859,7.5-16.979,7.5
		c-12.54,0-22.019-9.3-22.019-21.479c0-12.119,9.659-21.238,22.379-21.238C495.868,851.222,502.229,853.921,506.368,858.181z"/>
	<path fill="#FFFFFF" d="M527.608,876.42l-6.06,6.72v10.38h-9.479v-41.998h9.479v19.079l17.459-19.079h10.979l-15.779,17.52
		l16.859,24.479h-11.399L527.608,876.42z"/>
</g>
<rect x="336" y="1361.5" fill="none" width="255" height="174.018"/>
<g enable-background="new    ">
	<path fill="#FFFFFF" d="M417.121,1370.681l-5.52,6.72c-2.88-3.3-7.02-5.459-10.919-5.459c-7.2,0-12.78,5.579-12.78,12.899
		c0,7.319,5.58,12.959,12.78,12.959c3.78,0,7.919-1.92,10.919-4.92l5.58,6.06c-4.439,4.561-10.859,7.5-16.979,7.5
		c-12.54,0-22.019-9.3-22.019-21.479c0-12.119,9.659-21.238,22.379-21.238C406.621,1363.722,412.981,1366.421,417.121,1370.681z"/>
	<path fill="#FFFFFF" d="M451.32,1406.02v-16.56h-19.019v16.56h-9.48v-41.998h9.48v17.52h19.019v-17.52h9.479v41.998H451.32z"/>
	<path fill="#FFFFFF" d="M470.04,1406.02v-41.998h9.48v41.998H470.04z"/>
	<path fill="#FFFFFF" d="M516.299,1397.74v8.279h-27.479v-41.998h9.48v33.719H516.299z"/>
	<path fill="#FFFFFF" d="M549.418,1397.74v8.279h-27.479v-41.998h9.48v33.719H549.418z"/>
</g>
<g>
	<g>
		
			<line fill="none" stroke="#FFFFFF" stroke-width="5" stroke-linecap="round" stroke-miterlimit="10" x1="585" y1="1254.5" x2="705" y2="1254.5"/>
		
			<line fill="none" stroke="#FFFFFF" stroke-width="5" stroke-linecap="round" stroke-miterlimit="10" x1="613.5" y1="1255" x2="613.5" y2="1316"/>
		
			<line fill="none" stroke="#FFFFFF" stroke-width="5" stroke-linecap="round" stroke-miterlimit="10" x1="681.5" y1="1255" x2="681.5" y2="1316"/>
	</g>
	<g>
		<polyline fill="none" stroke="#FFFFFF" stroke-width="5" stroke-linecap="round" stroke-miterlimit="10" points="
			534.365,1237.537 544.72,1284.5 586,1284.5 		"/>
		
			<line fill="none" stroke="#FFFFFF" stroke-width="5" stroke-linecap="round" stroke-miterlimit="10" x1="558.5" y1="1285" x2="558.5" y2="1313"/>
	</g>
	<g>
		
			<ellipse transform="matrix(-0.8165 0.5774 -0.5774 -0.8165 1980.0546 1781.6774)" fill="none" stroke="#FFFFFF" stroke-width="5" stroke-linecap="round" stroke-miterlimit="10" cx="706.861" cy="1205.534" rx="12.797" ry="13.827"/>
		<path fill="none" stroke="#FFFFFF" stroke-width="5" stroke-linecap="round" stroke-miterlimit="10" d="M714.776,1216.84
			c0,0,22.21,18.468,12.465,42.73c-2.647,6.588-17.147,19.434-17.147,19.434s24.785,28.578,29.773,34.189"/>
		
			<line fill="none" stroke="#FFFFFF" stroke-width="5" stroke-linecap="round" stroke-miterlimit="10" x1="727.5" y1="1260" x2="727.5" y2="1314"/>
		<polyline fill="none" stroke="#FFFFFF" stroke-width="5" stroke-linecap="round" stroke-miterlimit="10" points="
			719.944,1223.093 702.299,1239.929 686.087,1226.521 		"/>
	</g>
	<g>
		
			<ellipse transform="matrix(-0.9803 -0.1977 0.1977 -0.9803 895.0667 2503.9824)" fill="none" stroke="#FFFFFF" stroke-width="5" stroke-linecap="round" stroke-miterlimit="10" cx="572.503" cy="1207.32" rx="12.798" ry="13.827"/>
		<polyline fill="none" stroke="#FFFFFF" stroke-width="5" stroke-linecap="round" stroke-miterlimit="10" points="567.514,1228.64 
			590.462,1236.895 608.828,1223.093 		"/>
	</g>
	<path fill="none" stroke="#FFFFFF" stroke-width="5" stroke-linecap="round" stroke-miterlimit="10" d="M565.5,1219
		c0,0-13,51.716,0,51.716c32,0,33.789-0.081,33.789,40.095"/>
	<g>
		<g>
			<polygon fill="#FFFFFF" points="587,1183 591,1183 591,1189.501 594.946,1183 614,1183 614,1167 587,1167 			"/>
			<rect x="662" y="1150" fill="#FFFFFF" width="41" height="25"/>
		</g>
		<polyline fill="#FFFFFF" points="688.396,1170.29 697,1184.501 697,1170 		"/>
	</g>
</g>
<g>
	<g>
		
			<line fill="none" stroke="#FFFFFF" stroke-width="5" stroke-linecap="round" stroke-miterlimit="10" x1="112" y1="757.5" x2="253" y2="757.5"/>
		
			<line fill="none" stroke="#FFFFFF" stroke-width="5" stroke-linecap="round" stroke-miterlimit="10" x1="145.5" y1="758" x2="145.5" y2="806"/>
		
			<line fill="none" stroke="#FFFFFF" stroke-width="5" stroke-linecap="round" stroke-miterlimit="10" x1="225.5" y1="758" x2="225.5" y2="806"/>
	</g>
	<g>
		<polyline fill="none" stroke="#FFFFFF" stroke-width="5" stroke-linecap="round" stroke-miterlimit="10" points="48.004,727.051 
			59.278,776.5 102,776.5 		"/>
		
			<line fill="none" stroke="#FFFFFF" stroke-width="5" stroke-linecap="round" stroke-miterlimit="10" x1="73.5" y1="777" x2="73.5" y2="806"/>
	</g>
	<g>
		<path fill="none" stroke="#FFFFFF" stroke-width="5" stroke-linecap="round" stroke-miterlimit="10" d="M88.88,720.604
			c0,0-38.928,50.099,16.502,45.053c27.996-2.55,14.641,32.312,14.641,32.312"/>
		<path fill="none" stroke="#FFFFFF" stroke-width="5" stroke-linecap="round" stroke-miterlimit="10" d="M89.259,735.031
			c0,0,3.084,15.092,30.765,9.081"/>
		
			<ellipse transform="matrix(-0.0907 -0.9959 0.9959 -0.0907 -596.2552 879.7719)" fill="none" stroke="#FFFFFF" stroke-width="5" stroke-linecap="round" stroke-miterlimit="10" cx="103.515" cy="712.095" rx="15.057" ry="16.266"/>
	</g>
	<g>
		<polyline fill="none" stroke="#FFFFFF" stroke-width="5" stroke-linecap="round" stroke-miterlimit="10" points="317.877,727.051 
			306.484,776.5 264,776.5 		"/>
		
			<line fill="none" stroke="#FFFFFF" stroke-width="5" stroke-linecap="round" stroke-miterlimit="10" x1="292.5" y1="777" x2="292.5" y2="806"/>
	</g>
	<g>
		<path fill="none" stroke="#FFFFFF" stroke-width="5" stroke-linecap="round" stroke-miterlimit="10" d="M279.816,721.336
			c0,0,38.928,50.099-16.502,45.053c-27.996-2.549-14.642,32.312-14.642,32.312"/>
		<path fill="none" stroke="#FFFFFF" stroke-width="5" stroke-linecap="round" stroke-miterlimit="10" d="M279.438,735.765
			c0,0-3.084,15.093-30.766,9.081"/>
		
			<ellipse transform="matrix(-0.0907 0.9959 -0.9959 -0.0907 999.1118 513.3417)" fill="none" stroke="#FFFFFF" stroke-width="5" stroke-linecap="round" stroke-miterlimit="10" cx="265.2" cy="712.796" rx="15.057" ry="16.266"/>
	</g>
	
		<polyline fill="none" stroke="#FFFFFF" stroke-width="5" stroke-linecap="round" stroke-linejoin="round" stroke-miterlimit="10" points="
		130,747.5 152.207,747.5 159.931,719.015 	"/>
	<polyline fill="none" stroke="#FFFFFF" stroke-width="5" stroke-linecap="round" stroke-miterlimit="10" points="223.5,689 
		223.5,714.308 223.5,746 	"/>
	
		<polyline fill="none" stroke="#FFFFFF" stroke-width="5" stroke-linecap="round" stroke-linejoin="round" stroke-miterlimit="10" points="
		206.676,757.635 211.379,713.5 223,713.5 	"/>
	<g>
		<g>
			<path fill="#FFFFFF" d="M185,619.167c-0.97,2.18-1.968,4.345-3.009,6.485c-1.025,2.148-2.091,4.274-3.159,6.4
				c-1.059,2.13-2.176,4.228-3.262,6.342c-1.097,2.109-2.237,4.193-3.354,6.291L171,642.604c1.833-0.051,3.667-0.049,5.5-0.064
				l5.5-0.037c3.667,0.041,7.333,0.021,11,0.11l2.265,0.055l-1.019,1.946c-1.081,2.063-2.129,4.144-3.236,6.195
				c-1.111,2.05-2.186,4.117-3.328,6.151c-1.127,2.042-2.261,4.08-3.432,6.1c-1.158,2.026-2.356,4.033-3.584,6.024
				c0.828-2.189,1.685-4.363,2.583-6.518c0.885-2.16,1.806-4.303,2.735-6.441c0.914-2.146,1.895-4.259,2.839-6.391
				c0.949-2.13,1.956-4.23,2.931-6.347l1.246,2.001c-3.667,0.089-7.333,0.07-11,0.11l-5.5-0.037c-1.833-0.016-3.667-0.014-5.5-0.065
				l-2.418-0.066l1.201-2.016c1.217-2.041,2.41-4.096,3.646-6.126c1.248-2.022,2.463-4.064,3.738-6.073
				c1.266-2.015,2.534-4.026,3.841-6.017C182.302,623.1,183.637,621.125,185,619.167z"/>
		</g>
		<g>
			<path fill="#FFFFFF" d="M240.372,628.234c-1.951,1.375-3.917,2.721-5.908,4.024c-1.982,1.319-3.987,2.6-5.994,3.876
				c-2.001,1.286-4.036,2.514-6.052,3.773c-2.023,1.248-4.071,2.453-6.105,3.681l0.023-2.412c1.6,0.896,3.173,1.838,4.755,2.765
				l4.741,2.788c3.127,1.915,6.285,3.777,9.388,5.733l1.916,1.208l-1.873,1.149c-1.986,1.218-3.953,2.466-5.955,3.661
				c-2.005,1.188-3.987,2.414-6.01,3.574c-2.015,1.176-4.033,2.344-6.074,3.479c-2.033,1.146-4.09,2.254-6.166,3.335
				c1.833-1.455,3.683-2.882,5.559-4.271c1.868-1.4,3.757-2.769,5.651-4.129c1.885-1.375,3.811-2.686,5.714-4.031
				c1.907-1.342,3.848-2.628,5.77-3.946l0.044,2.356c-3.194-1.803-6.332-3.698-9.5-5.544l-4.703-2.852
				c-1.566-0.954-3.141-1.892-4.688-2.876l-2.042-1.298l2.064-1.114c2.091-1.128,4.169-2.281,6.271-3.39
				c2.109-1.099,4.2-2.228,6.324-3.299c2.119-1.08,4.239-2.158,6.382-3.195C236.039,630.229,238.197,629.217,240.372,628.234z"/>
		</g>
		<g>
			<path fill="#FFFFFF" d="M123.171,628.154c0.676,2.289,1.321,4.583,1.918,6.887c0.614,2.301,1.183,4.61,1.75,6.92
				c0.576,2.308,1.086,4.629,1.632,6.943c0.534,2.315,1.018,4.642,1.529,6.963l-2.277-0.795c1.362-1.229,2.759-2.416,4.143-3.618
				l4.161-3.597c2.816-2.349,5.594-4.742,8.442-7.054l1.759-1.427l0.488,2.143c0.517,2.271,1.068,4.535,1.558,6.813
				c0.484,2.281,1.008,4.551,1.458,6.84c0.467,2.285,0.926,4.572,1.346,6.869c0.434,2.293,0.823,4.599,1.181,6.91
				c-0.791-2.203-1.549-4.413-2.263-6.635c-0.729-2.218-1.417-4.447-2.099-6.677c-0.697-2.227-1.321-4.472-1.986-6.706
				c-0.659-2.236-1.256-4.488-1.887-6.731l2.247,0.714c-2.732,2.447-5.535,4.812-8.299,7.221l-4.209,3.54
				c-1.406,1.178-2.799,2.368-4.228,3.52l-1.884,1.518l-0.393-2.312c-0.398-2.342-0.824-4.681-1.2-7.027
				c-0.363-2.35-0.763-4.691-1.097-7.047c-0.343-2.354-0.684-4.708-0.98-7.07C123.669,632.896,123.404,630.529,123.171,628.154z"/>
		</g>
	</g>
</g>
<g>
	<g>
		
			<line fill="none" stroke="#FFFFFF" stroke-width="5" stroke-linecap="round" stroke-miterlimit="10" x1="708" y1="238.5" x2="567" y2="238.5"/>
		
			<line fill="none" stroke="#FFFFFF" stroke-width="5" stroke-linecap="round" stroke-miterlimit="10" x1="674.5" y1="239" x2="674.5" y2="287"/>
		
			<line fill="none" stroke="#FFFFFF" stroke-width="5" stroke-linecap="round" stroke-miterlimit="10" x1="594.5" y1="239" x2="594.5" y2="287"/>
	</g>
	<g>
		<polyline fill="none" stroke="#FFFFFF" stroke-width="5" stroke-linecap="round" stroke-miterlimit="10" points="771.938,208.051 
			760.604,257.5 718,257.5 		"/>
		
			<line fill="none" stroke="#FFFFFF" stroke-width="5" stroke-linecap="round" stroke-miterlimit="10" x1="746.5" y1="258" x2="746.5" y2="287"/>
	</g>
	<g>
		<path fill="none" stroke="#FFFFFF" stroke-width="5" stroke-linecap="round" stroke-miterlimit="10" d="M731,201.603
			c0,0,38.928,50.099-16.502,45.053c-27.996-2.55-14.641,32.312-14.641,32.312"/>
		<path fill="none" stroke="#FFFFFF" stroke-width="5" stroke-linecap="round" stroke-miterlimit="10" d="M730.621,216.031
			c0,0-3.084,15.092-30.764,9.081"/>
		
			<ellipse transform="matrix(-0.0907 0.9959 -0.9959 -0.0907 973.6141 -502.8344)" fill="none" stroke="#FFFFFF" stroke-width="5" stroke-linecap="round" stroke-miterlimit="10" cx="716.367" cy="193.068" rx="15.057" ry="16.267"/>
	</g>
	<g>
		<polyline fill="none" stroke="#FFFFFF" stroke-width="5" stroke-linecap="round" stroke-miterlimit="10" points="502.062,208.051 
			513.396,257.5 556,257.5 		"/>
		
			<line fill="none" stroke="#FFFFFF" stroke-width="5" stroke-linecap="round" stroke-miterlimit="10" x1="527.5" y1="258" x2="527.5" y2="287"/>
	</g>
	<g>
		<path fill="none" stroke="#FFFFFF" stroke-width="5" stroke-linecap="round" stroke-miterlimit="10" d="M540.064,202.336
			c0,0-38.929,50.099,16.502,45.053c27.996-2.549,14.643,32.312,14.643,32.312"/>
		<path fill="none" stroke="#FFFFFF" stroke-width="5" stroke-linecap="round" stroke-miterlimit="10" d="M540.443,216.765
			c0,0,3.084,15.092,30.766,9.081"/>
		
			<ellipse transform="matrix(-0.0907 -0.9959 0.9959 -0.0907 412.0032 763.8054)" fill="none" stroke="#FFFFFF" stroke-width="5" stroke-linecap="round" stroke-miterlimit="10" cx="554.703" cy="193.81" rx="15.057" ry="16.266"/>
	</g>
	
		<polyline fill="none" stroke="#FFFFFF" stroke-width="5" stroke-linecap="round" stroke-linejoin="round" stroke-miterlimit="10" points="
		690,228.5 667.674,228.5 660.01,200.015 	"/>
	<polyline fill="none" stroke="#FFFFFF" stroke-width="5" stroke-linecap="round" stroke-miterlimit="10" points="596.5,170 
		596.5,195.308 596.5,227 	"/>
	
		<polyline fill="none" stroke="#FFFFFF" stroke-width="5" stroke-linecap="round" stroke-linejoin="round" stroke-miterlimit="10" points="
		613.265,238.635 608.502,194.5 597,194.5 	"/>
	<g>
		<g>
			<path fill="#FFFFFF" d="M649,100.167c-0.97,2.18-1.969,4.345-3.009,6.485c-1.025,2.149-2.091,4.275-3.158,6.401
				c-1.06,2.13-2.177,4.227-3.263,6.342c-1.098,2.109-2.237,4.193-3.354,6.291L635,123.604c1.833-0.051,3.667-0.049,5.5-0.065
				l5.5-0.037c3.667,0.041,7.333,0.021,11,0.11l2.265,0.055l-1.019,1.946c-1.08,2.064-2.13,4.144-3.236,6.196
				c-1.11,2.049-2.186,4.117-3.327,6.151c-1.127,2.042-2.262,4.08-3.433,6.1c-1.157,2.026-2.355,4.033-3.584,6.024
				c0.827-2.189,1.685-4.363,2.583-6.517c0.885-2.161,1.806-4.303,2.734-6.442c0.914-2.146,1.896-4.259,2.839-6.391
				c0.95-2.128,1.956-4.229,2.932-6.346l1.246,2.001c-3.667,0.089-7.333,0.07-11,0.11l-5.5-0.037
				c-1.833-0.016-3.667-0.014-5.5-0.065l-2.418-0.067l1.201-2.015c1.217-2.041,2.41-4.096,3.646-6.126
				c1.248-2.023,2.464-4.065,3.737-6.074c1.267-2.014,2.534-4.026,3.842-6.016C646.302,104.1,647.637,102.125,649,100.167z"/>
		</g>
		<g>
			<path fill="#FFFFFF" d="M704.372,109.234c-1.95,1.375-3.917,2.721-5.908,4.025c-1.981,1.319-3.987,2.599-5.993,3.876
				c-2.002,1.286-4.036,2.513-6.053,3.773c-2.023,1.248-4.07,2.453-6.104,3.681l0.021-2.412c1.602,0.896,3.174,1.838,4.756,2.764
				l4.74,2.788c3.128,1.915,6.285,3.778,9.388,5.734l1.916,1.208l-1.872,1.149c-1.985,1.218-3.953,2.466-5.955,3.661
				c-2.005,1.189-3.985,2.414-6.01,3.575c-2.015,1.175-4.033,2.343-6.074,3.478c-2.032,1.146-4.091,2.254-6.166,3.335
				c1.833-1.455,3.685-2.882,5.56-4.271c1.867-1.401,3.757-2.769,5.649-4.129c1.886-1.375,3.812-2.686,5.716-4.032
				c1.905-1.341,3.848-2.628,5.77-3.946l0.044,2.357c-3.192-1.803-6.332-3.699-9.5-5.544l-4.703-2.852
				c-1.564-0.954-3.141-1.892-4.688-2.876l-2.041-1.298l2.063-1.114c2.092-1.128,4.168-2.281,6.271-3.39
				c2.108-1.098,4.2-2.227,6.323-3.299c2.119-1.08,4.239-2.158,6.383-3.195C700.039,111.228,702.197,110.217,704.372,109.234z"/>
		</g>
		<g>
			<path fill="#FFFFFF" d="M587.171,109.154c0.677,2.289,1.321,4.583,1.918,6.887c0.614,2.301,1.184,4.61,1.749,6.92
				c0.576,2.308,1.086,4.629,1.633,6.943c0.533,2.316,1.019,4.642,1.529,6.963l-2.277-0.795c1.362-1.228,2.76-2.416,4.145-3.618
				l4.161-3.597c2.815-2.348,5.595-4.742,8.442-7.053l1.76-1.427l0.486,2.142c0.519,2.272,1.068,4.536,1.559,6.814
				c0.482,2.281,1.008,4.551,1.458,6.84c0.467,2.285,0.927,4.572,1.346,6.869c0.435,2.293,0.824,4.598,1.182,6.91
				c-0.79-2.203-1.549-4.413-2.263-6.635c-0.729-2.218-1.418-4.447-2.099-6.677c-0.698-2.226-1.322-4.471-1.986-6.706
				c-0.659-2.236-1.256-4.488-1.887-6.731l2.245,0.714c-2.731,2.447-5.534,4.811-8.299,7.221l-4.21,3.54
				c-1.405,1.177-2.799,2.368-4.228,3.519l-1.884,1.518l-0.395-2.313c-0.397-2.343-0.823-4.68-1.199-7.027
				c-0.362-2.35-0.763-4.692-1.097-7.047c-0.344-2.354-0.685-4.708-0.979-7.07C587.67,113.897,587.404,111.529,587.171,109.154z"/>
		</g>
	</g>
</g>
<g>
	<rect x="141.5" y="1486.5" fill="none" stroke="#FFFFFF" stroke-width="5" stroke-miterlimit="10" width="130" height="159"/>
	<line fill="none" stroke="#FFFFFF" stroke-width="5" stroke-miterlimit="10" x1="206.5" y1="1486" x2="206.5" y2="1645"/>
	
		<line fill="none" stroke="#FFFFFF" stroke-width="5" stroke-linecap="round" stroke-linejoin="round" stroke-miterlimit="10" x1="226.5" y1="1556" x2="226.5" y2="1573"/>
	
		<line fill="none" stroke="#FFFFFF" stroke-width="5" stroke-linecap="round" stroke-linejoin="round" stroke-miterlimit="10" x1="186.5" y1="1556" x2="186.5" y2="1573"/>
</g>
<g>
	
		<rect x="99.5" y="1535.5" fill="none" stroke="#FFFFFF" stroke-width="3" stroke-linecap="round" stroke-linejoin="round" stroke-miterlimit="10" width="25" height="33"/>
	
		<line fill="none" stroke="#FFFFFF" stroke-width="3" stroke-linecap="round" stroke-linejoin="round" stroke-miterlimit="10" x1="99.5" y1="1535.5" x2="124.5" y2="1568.5"/>
	
		<line fill="none" stroke="#FFFFFF" stroke-width="3" stroke-linecap="round" stroke-linejoin="round" stroke-miterlimit="10" x1="124.5" y1="1535.5" x2="99.5" y2="1568.5"/>
</g>
</svg>
