<svg xmlns="http://www.w3.org/2000/svg" viewBox="0 0 380.69 348.22"><defs><style>.cls-1{fill:#b2e4c0;}.cls-12,.cls-2{fill:#1a3d43;}.cls-3{fill:#68bea5;}.cls-4{fill:#fff;}.cls-5{fill:#24b34b;}.cls-6{fill:#149246;}.cls-7{fill:#2b4e55;}.cls-8{fill:#65c980;}.cls-9{fill:#363a46;}.cls-10{fill:#15b445;}.cls-11{fill:#0a6623;}.cls-12{stroke:#1a3d43;stroke-miterlimit:10;stroke-width:0.5px;}</style></defs><title>Asset 1</title><g id="Layer_2" data-name="Layer 2"><g id="Layer_1-2" data-name="Layer 1"><circle class="cls-1" cx="176.65" cy="177.35" r="169.92"/><path class="cls-2" d="M44.59,97.76,35.8,91.44a1.14,1.14,0,0,0-.65-.21l-2.46-.41,3.46,5A12.34,12.34,0,0,1,37.87,106L25.23,153.39a1.14,1.14,0,0,0,.81,1.39l2.74.73a1.14,1.14,0,0,0,1.39-.81L45,99A1.14,1.14,0,0,0,44.59,97.76Z"/><path class="cls-2" d="M88.1,78.67a30.92,30.92,0,0,0-6.85-28.11c-.73-.83-1.82.81-2.64.07L73.87,68.71l-16,6.53-9.3-12.05a4.22,4.22,0,0,1-.73-3.68l4.06-15a2.35,2.35,0,0,0-3.08-2.6c-9,3.84-16.1,11-18.83,21.1-2.5,9.28-3.1,18.52,2.5,25.93,3.73,4.93,9.64,7,11.16,10s-1.9,8.16-2.79,11.46l-4.26,15.8c1.41,2.25.53,3.41,3.91,4.79,5.15,2.1,10.69,2,14.11,0l6.09-22.59a13.51,13.51,0,0,1,8.5-9.2A30.07,30.07,0,0,0,88.1,78.67Z"/><path class="cls-3" d="M77.84,49.76,73,66.28a2.17,2.17,0,0,1-1.26,1.4L56.73,73.86l1.9,2.5a2.05,2.05,0,0,0,2.43.65l14.73-6.19a1.32,1.32,0,0,0,.76-.88l4.9-18.16a1.48,1.48,0,0,0-.39-1.44,4.87,4.87,0,0,0-2.17-.85C78.43,49.35,78,49.3,77.84,49.76Z"/><path class="cls-3" d="M45.17,105.58c1-3.74-.32-9.33-3.42-11.66-9.43-7.08-12.71-17.75-9.39-30C35.19,53.39,41,45.72,50.6,42.24c.68-.25-1.63-1.05-4.06-.41C40.32,43.48,30.83,49,26.91,63.47a31.83,31.83,0,0,0,9.62,31.37l.08.08a9.36,9.36,0,0,1,3.45,10L36,120.22l3.86.36,1.24.33Z"/><path class="cls-2" d="M51.57,142.72s12.11,30.18,69.17,40.62L101.18,235.6S38.31,203.1,28.25,143.29Z"/><path class="cls-3" d="M89.94,216.14s-43.22-29-56.77-68.21c0,0,18.35-10.92,19.46-6.1,4.48,19.56,46.31,36,46.31,36s-2.25,7.33-4.65,17.88C92.36,204.16,89.94,216.14,89.94,216.14Z"/><path class="cls-3" d="M18.91,148c2.16-6.76,7.37-24.82,7.39-24.84s1.57-2,2.1-2.67c3.92-4.86,13.83-5.93,22.53-2.42,8.09,3.26,12.39,9.4,10.56,14.44h0s-6.89,27.88-7.89,29.33c-3.67,5.28-13.95,6.6-23,3S17.08,153.69,18.91,148Z"/><path class="cls-2" d="M55,120.11c5.4,3.42,8,8.26,6.51,12.38h0s-6.89,27.88-7.89,29.33c-2,2.9-6,4.59-10.73,4.94Z"/><path class="cls-3" d="M30.87,164.86c8.18,3.14,17,2.43,19.68-1.58s-1.76-9.8-9.95-12.94-17-2.43-19.67,1.58S22.69,161.73,30.87,164.86Z"/><path class="cls-2" d="M46.6,159.93A15.09,15.09,0,0,0,39,153.76c-4.93-2-10.22-2-13.67-.22L13.54,197.25a3.94,3.94,0,0,0,.92,3.76,17.21,17.21,0,0,0,5.92,3.88,18.35,18.35,0,0,0,12.06.88A3.91,3.91,0,0,0,35,203Z"/><path class="cls-3" d="M16.59,197a3.94,3.94,0,0,0,.92,3.76,15.1,15.1,0,0,0,2.25,1.89l13.49-50.61s-3.58-.69-4.87.42Z"/><path class="cls-4" d="M22.13,150.18,31.4,118a19.05,19.05,0,0,1,8.82-2l-8.35,32.29C27.87,148,24.32,148.61,22.13,150.18Z"/><path class="cls-2" d="M20.78,205c4.91,1.76,9.88,1.64,11.12-.26s-1.74-4.87-6.65-6.63-9.88-1.64-11.12.26S15.88,203.22,20.78,205Z"/><path class="cls-5" d="M105.2,142.58A13.73,13.73,0,0,1,87,149a13.45,13.45,0,0,1-6.36-18,13.73,13.73,0,0,1,18.21-6.39A13.45,13.45,0,0,1,105.2,142.58Z"/><path class="cls-6" d="M94.7,123.35a13.65,13.65,0,0,1,4.15,1.2,13.45,13.45,0,0,1,6.36,18A13.72,13.72,0,0,1,89.81,150C106,141.71,102.76,130,94.7,123.35Z"/><path class="cls-3" d="M102,134.52l19.81,5.27c5.1,2.11,7.41,9.25,5.16,15.93s-8.21,10.4-13.31,8.28L95.43,144.09C92.23,138.21,97.59,134,102,134.52Z"/><path class="cls-7" d="M102.21,134.46l23.84,6.06a15.38,15.38,0,0,1,3,8.73L98.73,134.93A5.42,5.42,0,0,1,102.21,134.46Z"/><path class="cls-4" d="M94.49,140.08l27.62,22.63c-2.59,1.82-5.33,2.5-8.4,1.3L95.43,144.09A6.43,6.43,0,0,1,94.49,140.08Z"/><ellipse class="cls-8" cx="86.25" cy="132.74" rx="8.12" ry="5.3" transform="translate(-72.04 131.1) rotate(-56.39)"/><ellipse class="cls-4" cx="84.73" cy="131.47" rx="3.99" ry="2.91" transform="matrix(0.57, -0.82, 0.82, 0.57, -71.56, 125.26)"/><path class="cls-2" d="M323.3,297.72l-88.07,40.05-4.56-228.23,50.52-3.64s4.25,6.26,4.5,8.13c.63,4.8,6.38,5.06,11.23,19.65C310,173,323.3,297.72,323.3,297.72Z"/><path class="cls-3" d="M81.33,317.13c6.26-127.93,44.81-207.59,44.81-207.59l105.94-.1s8.61,122.36,22.67,213.65"/><path class="cls-4" d="M95.31,315.46c3.62-129.25,39.26-207.59,39.26-207.59h16.49S132,230.14,135.2,321.42"/><path class="cls-4" d="M274,218.41c-1.1-11.15,4.82-19.73,11.29-20.39s12.61,7.85,13.7,19-4.64,20.12-11.12,20.75C280.52,238.48,275.14,229.55,274,218.41Z"/><path class="cls-3" d="M278.47,218.21c.56,9.14,4.53,17.21,13.25,15.33.17,0,27.56-6.26,37.37,2.55,6.68,6,14.46,21.76,13.33,38a23.8,23.8,0,0,1-.44,3.12,68.23,68.23,0,0,1,8.23-.32,53,53,0,0,1,10.68,1.27,17.11,17.11,0,0,0,.42-2.7c1.88-27.21-4.63-47.71-19.36-60.93-12.59-11.29-27.86-14.14-39.15-14.4-8.23-.19-14.53.52-15.75,1.3C281.16,205.26,278,210,278.47,218.21Z"/><path class="cls-2" d="M354,277.14a49.32,49.32,0,0,1,6.87,1.05,17,17,0,0,0,.41-2.71c1.88-27.21-4.63-47.71-19.36-60.93-12.59-11.29-27.86-14.14-39.15-14.4-8.23-.19-14.46.6-15.79,1.15-2.87,1.2-6.84,5.78-7.69,9.22C345.75,197.31,354.32,249,354,277.14Z"/><path class="cls-4" d="M342,277.42c0-2.3,4.32-4.06,9.56-3.94s9.44,2.08,9.4,4.37-4.33,4.06-9.56,3.94S342,279.72,342,277.42Z"/><path class="cls-7" d="M344.64,277.89c0-1.48,3.06-2.61,6.77-2.52s6.69,1.35,6.67,2.83-3.06,2.61-6.77,2.52S344.61,279.37,344.64,277.89Z"/><path class="cls-4" d="M342.65,266.23l-.76-.65c.07-.08,7.14-8.08,19.94-1.78l-.44.9C349.31,258.75,342.92,265.93,342.65,266.23Z"/><path class="cls-4" d="M338.41,249.34l-1-.26c0-.12,3.32-11.4,21.39-6.92l-.24,1C341.51,238.9,338.53,248.91,338.41,249.34Z"/><path class="cls-4" d="M329.59,236.15l-1-.13c0-.32,1.08-7.87,6.95-11.88,3.61-2.47,8.23-3,13.74-1.66l-.24,1c-5.22-1.29-9.57-.78-12.93,1.51C330.6,228.73,329.6,236.08,329.59,236.15Z"/><path class="cls-4" d="M297.14,232.29c-.14-.18-13.93-17.81,2.89-32.66l.66.75c-16.12,14.23-2.91,31.11-2.77,31.28Z"/><path class="cls-4" d="M314.82,231.36c-.08-.15-7.31-15.46,10.4-27.29l.55.83c-7,4.7-11,10.7-11.47,17.34a18.65,18.65,0,0,0,1.42,8.68Z"/><path class="cls-5" d="M124.53,43.8c-1.27.55-2.51,1.15-3.74,1.76-1.45.73-2.87,1.49-4.29,2.27-.11-.56-.21-1.13-.34-1.69-.33-1.56-.7-3.11-1.12-4.65l-.93-3.42L111.33,40q-1.84,1.28-3.63,2.64t-3.51,2.82c-1.15,1-2.28,2-3.38,3a45.36,45.36,0,0,0-3.17,3.34A45.47,45.47,0,0,0,102,50.28c1.41-.57,2.78-1.21,4.14-1.86s2.69-1.35,4-2.07l.88-.51c.11.48.22,1,.34,1.43.39,1.55.83,3.08,1.3,4.6l1,3.22,2.45-1.86q3.26-2.47,6.36-5.18c1-.91,2.05-1.83,3-2.79s2-1.95,2.9-3C127.08,42.71,125.8,43.25,124.53,43.8Z"/><path class="cls-5" d="M100.4,8.42c-1.1,1.29-2.11,2.62-3.11,4s-2,2.71-2.89,4.08c-1.3,1.92-2.55,3.87-3.77,5.83Q89.35,21,88,19.76q-2.31-2.2-4.7-4.31L81,13.36l-1.42,2.69q-1.27,2.41-2.44,4.88t-2.26,5c-.71,1.68-1.42,3.37-2,5.11s-1.23,3.47-1.72,5.28c1.27-1.37,2.45-2.8,3.57-4.25s2.21-2.93,3.26-4.42,2.06-3,3-4.55c.42-.65.81-1.32,1.21-2q1.23,1.16,2.49,2.3,2.36,2.14,4.82,4.17l2.32,1.93L93,27q2.13-4.49,4-9.1c.62-1.54,1.23-3.09,1.79-4.67S99.94,10.05,100.4,8.42Z"/><path class="cls-5" d="M56.59,23.28Q56.35,20.64,56,18t-.81-5.21l-.56-3.21-3,1.55c-1.7.88-3.37,1.8-5,2.75q-1.2.69-2.38,1.41c-.53-2.06-1.09-4.12-1.71-6.17-.47-1.54-1-3.07-1.49-4.6s-1.1-3-1.74-4.56c-.06,1.64,0,3.26,0,4.88s.15,3.22.27,4.83q.37,4.81,1,9.57l.4,2.95,2.91-1.39C45.59,20,47.3,19.15,49,18.25L51.2,17c.16.62.3,1.25.46,1.87q.68,2.55,1.47,5.07c.54,1.68,1.08,3.36,1.73,5s1.29,3.32,2.08,5c.09-1.81.07-3.6,0-5.37S56.75,25,56.59,23.28Z"/><path class="cls-5" d="M24.73,25.35q-.58-2.18-1.27-4.32T22,16.79l-1.18-3.17L18.09,15.9c-1.22,1-2.41,2.09-3.57,3.17-.42.39-.83.79-1.24,1.19-.71-1.45-1.45-2.89-2.22-4.31-.66-1.2-1.34-2.4-2.06-3.58S7.52,10,6.7,8.89c.16,1.4.41,2.76.67,4.12s.58,2.7.9,4q1,4,2.26,7.89l.95,2.92,2.66-2.07q1.89-1.47,3.7-3l1.1-1c.15.3.28.62.43.92q1,2,2.1,4c.74,1.31,1.5,2.61,2.33,3.89a45.49,45.49,0,0,0,2.67,3.75,45.58,45.58,0,0,0-.7-4.55C25.48,28.28,25.12,26.81,24.73,25.35Z"/><ellipse class="cls-2" cx="199.98" cy="211.5" rx="8.47" ry="9.22" transform="translate(-27.28 29.62) rotate(-7.93)"/><ellipse class="cls-4" cx="200.42" cy="210.36" rx="6.68" ry="7.27" transform="translate(-27.11 29.67) rotate(-7.93)"/><ellipse class="cls-5" cx="200.29" cy="209.8" rx="5.12" ry="5.57" transform="translate(-27.03 29.64) rotate(-7.93)"/><path class="cls-4" d="M211,265.56l2.21-.1-.69-18.9c-.15-4.22-2.82-8.77-6.06-10.37l-35.2-17.32c-2.37-1.17-4.22-4.75-4-7.83l.52-8.71-2.2-.21-.52,8.71c-.25,4.2,2.18,8.91,5.42,10.5l35.2,17.32c2.42,1.19,4.56,4.85,4.68,8Z"/><path class="cls-3" d="M215.53,266.77a2.47,2.47,0,0,0,2.16-2.71l-.22-11c-.1-4.79-2.94-9.8-6.61-11.65l-36-18.14c-2-1-3.57-4.07-3.47-6.61l.5-12a2.56,2.56,0,0,0-2.1-2.81h-.18a2.43,2.43,0,0,0-2.13,2.51l-.5,12c-.2,4.79,2.52,10,6.2,11.84l36,18.14c2,1,3.82,4.2,3.87,6.82l.22,11A2.47,2.47,0,0,0,215.53,266.77Z"/><path class="cls-4" d="M215.5,265.44a1.23,1.23,0,0,0,1.08-1.36l-.22-11c-.08-4.23-2.69-8.81-5.93-10.44l-36-18.14c-2.38-1.2-4.28-4.82-4.15-7.92l.5-12a1.27,1.27,0,0,0-1-1.41,1.18,1.18,0,0,0-1.16,1.25l-.5,12c-.17,4.19,2.3,8.91,5.52,10.53l36,18.14c2.41,1.21,4.5,4.89,4.56,8l.22,11A1.23,1.23,0,0,0,215.5,265.44Z"/><path class="cls-2" d="M127.29,158.74c7.48-20.33,28.75-31.22,47.51-24.34s27.91,28.94,20.43,49.27S166.49,214.9,147.73,208,119.81,179.07,127.29,158.74Z"/><path class="cls-5" d="M157.36,199.16a25.94,25.94,0,0,1-9-1.59,26.74,26.74,0,0,1-15.5-15.16,31.75,31.75,0,0,1-.28-23.19c4.54-12.33,15.76-20.62,27.94-20.62a25.94,25.94,0,0,1,9,1.59A26.74,26.74,0,0,1,185,155.35a31.75,31.75,0,0,1,.28,23.19C180.76,190.88,169.53,199.16,157.36,199.16Z"/><path class="cls-4" d="M160.55,136.6v4h0a23.93,23.93,0,0,1,8.27,1.47,24.76,24.76,0,0,1,14.34,14.05,29.76,29.76,0,0,1,.25,21.73c-4.25,11.55-14.72,19.31-26.06,19.31a23.94,23.94,0,0,1-8.27-1.47,24.76,24.76,0,0,1-14.34-14.05,29.76,29.76,0,0,1-.25-21.73c4.25-11.55,14.72-19.31,26.06-19.31v-4m0,0c-12.64,0-24.87,8.48-29.81,21.93-6.21,16.88,1.39,35.2,17,40.92a27.93,27.93,0,0,0,9.65,1.71c12.64,0,24.87-8.48,29.81-21.93,6.21-16.88-1.39-35.2-17-40.92a27.93,27.93,0,0,0-9.65-1.71Z"/><polygon class="cls-4" points="145.18 143.59 165.86 197.01 158.29 199.49 139.02 149.67 145.18 143.59"/><polygon class="cls-4" points="153.67 137.76 175.05 194.17 172.31 195.57 151 140.4 153.67 137.76"/><path class="cls-9" d="M49.58,291.41a11.76,11.76,0,0,1,8.5,3.72L64,289.2c-3-3.13-8-5.09-13.11-5.09-10.82,0-20.22,7.49-22,17.43s4.79,17.53,15.22,17.53a31.07,31.07,0,0,0,15-4.46l1.38-7.82h0l1.33-7.54H48.61l-1.33,7.54H53l-.59,3.32a16.6,16.6,0,0,1-6.37,1.66c-5.68,0-9.26-4.4-8.23-10.23A12.26,12.26,0,0,1,49.58,291.41Z"/><path class="cls-9" d="M98.08,296.35c1.35-7.64-3.08-11.95-12.14-11.95H70.61l-6,34.28h8.72L75,309h6.86l3.39,9.65h9.89l-5.2-11.31A14.22,14.22,0,0,0,98.08,296.35Zm-15.28,5.83H76.2l1.93-10.92h6.61c3.77,0,5.66,1.82,5,5.39S86.58,302.18,82.81,302.18Z"/><path class="cls-9" d="M117.2,284.4,96.37,318.68h9l3.61-6.32h15l1.33,6.31h9.3l-8.4-34.28Zm-4.55,21.35,7.23-12.68,2.66,12.68Z"/><path class="cls-9" d="M163.89,300.52a9.65,9.65,0,0,0,7.21-7.54c.92-5.24-3.39-8.57-11.07-8.57H143.81l-6,34.28h16.79c8.08,0,13.82-3.67,14.85-9.5C170.19,304.73,168,301.35,163.89,300.52Zm-12.58-9.45h7.05c2.55,0,3.94,1.27,3.55,3.48s-2.25,3.57-4.79,3.57h-7.05ZM154.67,312h-7.05l1.34-7.59H156c3.23,0,5,1.42,4.58,3.72C160.16,310.56,157.9,312,154.67,312Z"/><path class="cls-9" d="M190,284.4l-20.83,34.28h9l3.61-6.32h15l1.33,6.32h9.31l-8.4-34.28Zm-4.55,21.35,7.23-12.68,2.66,12.68Z"/><polygon class="cls-9" points="208.57 291.41 218.8 291.41 214 318.68 222.71 318.68 227.52 291.41 237.85 291.41 239.1 284.36 209.82 284.36 208.57 291.41"/><polygon class="cls-9" points="263.26 298.51 249.06 298.51 251.54 284.4 242.82 284.4 236.78 318.68 245.5 318.68 247.84 305.36 262.05 305.36 259.7 318.68 268.41 318.68 274.46 284.4 265.74 284.4 263.26 298.51"/><path class="cls-9" d="M297.64,284.11c-10.58,0-19.81,7.39-21.57,17.38s4.83,17.57,15.41,17.57,19.9-7.59,21.66-17.57S308.27,284.11,297.64,284.11Zm-4.78,27.66c-5.24,0-8.91-4.45-7.89-10.23s6.19-10.14,11.48-10.14,8.73,4.35,7.71,10.14S298.15,311.78,292.86,311.78Z"/><polygon class="cls-9" points="344.28 284.4 340.55 305.56 328.46 284.4 320.77 284.4 314.73 318.68 322.91 318.68 326.63 297.58 338.67 318.68 346.36 318.68 352.41 284.4 344.28 284.4"/><polygon class="cls-10" points="365 348.22 0 348.22 15.69 259.22 380.69 259.22 365 348.22"/><path class="cls-1" d="M360,342.22H7.15l13.58-77H373.54Zm-350.43-2H358.29l12.87-73H22.41Z"/><path class="cls-2" d="M51.42,292.8a11.76,11.76,0,0,1,8.5,3.72l5.94-5.93c-3-3.13-8-5.09-13.11-5.09-10.82,0-20.22,7.49-22,17.43S35.57,320.46,46,320.46A31.07,31.07,0,0,0,61,316l1.38-7.82h0l1.33-7.54H50.45l-1.33,7.54h5.75l-.59,3.32a16.6,16.6,0,0,1-6.37,1.66c-5.68,0-9.26-4.4-8.23-10.23A12.26,12.26,0,0,1,51.42,292.8Z"/><path class="cls-2" d="M99.92,297.74c1.35-7.64-3.08-11.95-12.14-11.95H72.45l-6,34.28h8.72l1.7-9.65h6.86l3.39,9.65H97l-5.2-11.31A14.22,14.22,0,0,0,99.92,297.74Zm-15.28,5.83H78L80,292.65h6.61c3.77,0,5.66,1.82,5,5.39S88.42,303.57,84.64,303.57Z"/><path class="cls-2" d="M119,285.79,98.21,320.07h9l3.61-6.32h15l1.33,6.31h9.3L128,285.79Zm-4.55,21.35,7.23-12.68,2.66,12.68Z"/><path class="cls-2" d="M165.72,301.91a9.65,9.65,0,0,0,7.21-7.54c.92-5.24-3.39-8.57-11.07-8.57H145.65l-6,34.28H156.4c8.08,0,13.82-3.67,14.85-9.5C172,306.12,169.89,302.74,165.72,301.91Zm-12.58-9.45h7.05c2.55,0,3.94,1.27,3.55,3.48s-2.25,3.57-4.79,3.57H151.9Zm3.36,20.91h-7.05l1.34-7.59h7.05c3.23,0,5,1.42,4.58,3.72C162,311.95,159.74,313.36,156.51,313.36Z"/><path class="cls-2" d="M191.79,285.79,171,320.07h9l3.61-6.32h15l1.33,6.32h9.31l-8.4-34.28Zm-4.55,21.35,7.23-12.68,2.66,12.68Z"/><polygon class="cls-2" points="210.41 292.8 220.64 292.8 215.83 320.07 224.55 320.07 229.36 292.8 239.69 292.8 240.93 285.75 211.65 285.75 210.41 292.8"/><polygon class="cls-2" points="265.09 299.9 250.89 299.9 253.38 285.79 244.66 285.79 238.62 320.07 247.34 320.07 249.68 306.75 263.88 306.75 261.54 320.07 270.25 320.07 276.3 285.79 267.58 285.79 265.09 299.9"/><path class="cls-2" d="M299.48,285.5c-10.58,0-19.81,7.39-21.57,17.38s4.83,17.57,15.41,17.57,19.9-7.59,21.66-17.57S310.11,285.5,299.48,285.5Zm-4.78,27.66c-5.24,0-8.91-4.45-7.89-10.23S293,292.8,298.29,292.8s8.73,4.35,7.71,10.14S300,313.17,294.7,313.17Z"/><polygon class="cls-2" points="346.11 285.79 342.38 306.94 330.3 285.79 322.61 285.8 316.57 320.07 324.74 320.07 328.46 298.97 340.51 320.07 348.2 320.07 354.24 285.79 346.11 285.79"/><path class="cls-4" d="M53.44,293.15a11.76,11.76,0,0,1,8.5,3.72l5.94-5.93c-3-3.13-8-5.09-13.11-5.09-10.82,0-20.22,7.49-22,17.43S37.59,320.82,48,320.82a31.07,31.07,0,0,0,15-4.46l1.38-7.82h0L65.77,301H52.47l-1.33,7.54h5.75l-.59,3.32a16.59,16.59,0,0,1-6.37,1.66c-5.68,0-9.26-4.4-8.23-10.23A12.26,12.26,0,0,1,53.44,293.15Z"/><path class="cls-4" d="M101.94,298.1c1.35-7.64-3.08-11.95-12.14-11.95H74.47l-6,34.28h8.72l1.7-9.65H85.7l3.39,9.65H99l-5.2-11.31A14.22,14.22,0,0,0,101.94,298.1Zm-15.28,5.83H80.05L82,293h6.61c3.77,0,5.66,1.82,5,5.39S90.44,303.92,86.66,303.92Z"/><path class="cls-4" d="M121.06,286.15l-20.83,34.28h9l3.61-6.32h15l1.33,6.31h9.3L130,286.15Zm-4.55,21.35,7.23-12.68,2.66,12.68Z"/><path class="cls-4" d="M167.74,302.26a9.65,9.65,0,0,0,7.21-7.54c.92-5.24-3.39-8.57-11.07-8.57H147.67l-6,34.28h16.79c8.08,0,13.82-3.67,14.85-9.5C174.05,306.47,171.91,303.09,167.74,302.26Zm-12.58-9.45h7.05c2.55,0,3.94,1.27,3.55,3.48s-2.25,3.57-4.79,3.57h-7.05Zm3.36,20.91h-7.05l1.34-7.59h7.05c3.23,0,5,1.42,4.58,3.72C164,312.3,161.76,313.72,158.52,313.72Z"/><path class="cls-4" d="M193.81,286.15,173,320.43h9l3.61-6.32h15l1.33,6.32h9.31l-8.4-34.28Zm-4.55,21.35,7.23-12.68,2.66,12.68Z"/><polygon class="cls-4" points="212.43 293.15 222.66 293.15 217.85 320.43 226.57 320.43 231.38 293.15 241.71 293.15 242.95 286.1 213.67 286.1 212.43 293.15"/><polygon class="cls-4" points="267.11 300.25 252.91 300.25 255.4 286.15 246.68 286.15 240.64 320.43 249.35 320.43 251.7 307.11 265.9 307.11 263.56 320.43 272.27 320.43 278.31 286.15 269.6 286.15 267.11 300.25"/><path class="cls-4" d="M301.5,285.86c-10.58,0-19.81,7.39-21.57,17.38s4.83,17.57,15.41,17.57,19.9-7.59,21.66-17.57S312.13,285.86,301.5,285.86Zm-4.78,27.66c-5.24,0-8.91-4.45-7.89-10.23s6.19-10.14,11.48-10.14,8.73,4.35,7.71,10.14S302,313.52,296.72,313.52Z"/><polygon class="cls-4" points="348.13 286.15 344.4 307.3 332.32 286.15 324.63 286.15 318.59 320.43 326.76 320.43 330.48 299.32 342.53 320.43 350.22 320.43 356.26 286.15 348.13 286.15"/><path class="cls-11" d="M268.68,72.69,222.74,52.51l-.31,55.63,75.66,25.53L287.9,97.57C284.24,84.63,283.27,78.85,268.68,72.69Z"/><path class="cls-5" d="M218,51.63l-65.83,2.64a10,10,0,0,0-9,5.76l-19.83,47,109.08,1.26-4.06-48C228.26,55.35,223.58,51.43,218,51.63Z"/><g id="IouufV.tif"><path class="cls-4" d="M174.62,77.48c-9,.44-15.69-2.22-19.81-8.41-.16-.24-.48-.5,0-1s.72-.14.94,0c4.62,3.47,10.39,5.26,17.21,5.46q11.06.34,23.79-5.22a2.6,2.6,0,0,1,1-.29c.58,0,.59.57,0,1.17a3.25,3.25,0,0,1-.66.5A53.66,53.66,0,0,1,183,76a43,43,0,0,1-4.46,1A36.44,36.44,0,0,1,174.62,77.48Z"/><path class="cls-4" d="M198.32,66.23c-1.11.09-2.25.31-3.39.49-.25,0-.65.22-.59-.15s.43-.54.72-.72a13,13,0,0,1,5.31-1.79,7.75,7.75,0,0,1,3.19.16c.44.14.53.49.27,1.06a21.42,21.42,0,0,1-6.4,8.24c-.3.24-.71.61-.92.38s.23-.63.45-.93a45.33,45.33,0,0,0,3.43-5,6,6,0,0,0,.29-.59c.3-.72.23-1-.32-1.14A6.49,6.49,0,0,0,198.32,66.23Z"/></g><path class="cls-6" d="M122,116.21,103.37,97.5c-3.56-3.65-1.82-10.72,3.29-11.09,22.69-1.66,90.72-3.3,105.54-4a33.48,33.48,0,0,1,17,3.66c20.51,10.54,50.37,34.45,60.21,40.43,5.75,3.49,7.91,5.85,8.64,7,.31.5.34,2.42-.46,2.11-4.94-1.94-27.85-9.63-57.12-18.66-38.64-11.91-88-15.48-116.1-.38A2,2,0,0,1,122,116.21Z"/><path class="cls-11" d="M123,117.29,103.37,97.5a4.28,4.28,0,0,1,2.76-7.28c21.1-1.52,92.36-3,106.85-3.17A28.9,28.9,0,0,1,225.9,90c19.2,9.34,57.2,35,66.59,40.52,6.83,4,5.06,5.12,5.06,5.12l-64.86-19.74-61,.8Z"/><ellipse class="cls-3" cx="240.5" cy="125.93" rx="1.3" ry="2.15" transform="translate(-16.66 38.93) rotate(-8.95)"/><ellipse class="cls-3" cx="242.31" cy="143.36" rx="1.25" ry="2.09" transform="translate(-19.34 39.42) rotate(-8.95)"/><ellipse class="cls-3" cx="244.13" cy="160.78" rx="1.21" ry="2.02" transform="translate(-22.03 39.92) rotate(-8.95)"/><ellipse class="cls-3" cx="245.94" cy="178.21" rx="1.17" ry="1.95" transform="translate(-24.72 40.41) rotate(-8.95)"/><ellipse class="cls-3" cx="247.76" cy="195.63" rx="1.13" ry="1.88" transform="translate(-27.41 40.9) rotate(-8.95)"/><ellipse class="cls-3" cx="249.57" cy="213.06" rx="1.09" ry="1.81" transform="translate(-30.09 41.4) rotate(-8.94)"/><ellipse class="cls-3" cx="251.38" cy="230.48" rx="1.05" ry="1.74" transform="translate(-32.79 41.9) rotate(-8.95)"/><ellipse class="cls-3" cx="253.2" cy="247.91" rx="1" ry="1.67" transform="translate(-35.48 42.4) rotate(-8.95)"/><ellipse class="cls-4" cx="280.09" cy="158.84" rx="16.64" ry="21.25" transform="translate(-22.39 48.45) rotate(-9.51)"/><ellipse class="cls-5" cx="282.12" cy="157.67" rx="14.77" ry="18.87" transform="translate(-22.19 48.83) rotate(-9.52)"/><path class="cls-6" d="M276.57,137.88c9.06-1.52,18,6.63,19.92,18.21s-3.83,22.19-12.9,23.71a13.33,13.33,0,0,1-4.61-.06c2.42-1.73,2.43-3.44,2.43-3.44l-7-35.46c-.2-1-2.15-1.36-2.27-1.39A13.3,13.3,0,0,1,276.57,137.88Z"/><path class="cls-3" d="M282,142.8c-6.54,1.1-10.7,8.75-9.31,17.1S280.5,174.14,287,173l28.59-20.2-5.55-11Z"/><path class="cls-2" d="M277.2,169.3l39.94-20.08-1.51,3.62L287,173C283.11,173.62,280,172.1,277.2,169.3Z"/><path class="cls-4" d="M312.23,146.34l-39.66,7.53a14.3,14.3,0,0,1,4.6-8.7l33.62-1.66Z"/><circle class="cls-5" cx="315.28" cy="146.22" r="13.44" transform="translate(137.61 444.9) rotate(-84.13)"/><ellipse class="cls-8" cx="311.42" cy="140.52" rx="8.27" ry="5.92" transform="translate(-23.94 205.77) rotate(-35.3)"/><ellipse class="cls-4" cx="310.63" cy="137.97" rx="4.46" ry="2.89" transform="translate(-28.31 112.58) rotate(-19.66)"/><path class="cls-6" d="M325.05,137a13.43,13.43,0,1,1-19.7,18.25C322.48,158,329.42,147,325.05,137Z"/><path class="cls-12" d="M171,241.45l-.29,1.47-6.72,0-.92,4.71,4.48,0q2.85,0,2.24,3.12l-.32,1.65q-.66,3.4-3.79,3.38l-5.6,0,.29-1.47,5.43,0a2.2,2.2,0,0,0,2.32-2.07l.27-1.36Q168.73,249,167,249l-5.6,0,1.47-7.54Z"/><path class="cls-12" d="M174.85,253.53l-.45,2.28h-1.34l.45-2.28Z"/><path class="cls-12" d="M187.58,241.5q3,0,2.34,3.28l-1.53,7.82q-.64,3.26-3.61,3.25l-3.73,0q-3,0-2.36-3.28l1.53-7.82q.64-3.26,3.63-3.25Zm-7.45,10.82q-.4,2,1.46,2h3.19a2.14,2.14,0,0,0,2.25-2l1.44-7.35q.4-2-1.46-2h-3.19a2.14,2.14,0,0,0-2.25,2Z"/></g></g></svg>