<?xml version="1.0" encoding="utf-8"?>
<!-- Generator: Adobe Illustrator 16.0.0, SVG Export Plug-In . SVG Version: 6.00 Build 0)  -->
<!DOCTYPE svg PUBLIC "-//W3C//DTD SVG 1.1//EN" "http://www.w3.org/Graphics/SVG/1.1/DTD/svg11.dtd">
<svg version="1.1" xmlns="http://www.w3.org/2000/svg" xmlns:xlink="http://www.w3.org/1999/xlink" x="0px" y="0px" width="41px"
	 height="41px" viewBox="0 0 41 41" enable-background="new 0 0 41 41" xml:space="preserve">
<g id="Layer_2">
</g>
<g id="Layer_1">
	<g>
		<g>
			<circle fill-rule="evenodd" clip-rule="evenodd" fill="#FFFFFF" cx="20.5" cy="20.5" r="20.5"/>
		</g>
		<g>
			<path fill="#24B34B" d="M31.521,26.251l-6.17-6.166c-0.54-0.54-0.806-1.323-0.705-2.082c0.316-2.395-0.479-4.747-2.188-6.454
				c-0.865-0.865-1.936-1.52-3.09-1.891c-1.121-0.356-2.325-0.457-3.492-0.284c-0.366,0.056-0.664,0.308-0.782,0.66
				c-0.114,0.352-0.027,0.732,0.238,0.993l2.164,2.17c0.394,0.393,0.609,0.915,0.609,1.473c0,0.559-0.216,1.08-0.609,1.475
				l-1.331,1.331c-0.394,0.394-0.916,0.609-1.475,0.609s-1.08-0.216-1.474-0.609l-2.165-2.164c-0.261-0.261-0.641-0.353-0.993-0.238
				S9.455,15.49,9.4,15.855c-0.174,1.167-0.078,2.371,0.284,3.493c0.37,1.158,1.025,2.224,1.89,3.089
				c1.461,1.461,3.396,2.257,5.424,2.257c0.339,0,0.683-0.023,1.025-0.068c0.765-0.101,1.543,0.164,2.083,0.704l6.165,6.166
				c0.105,0.104,0.247,0.16,0.39,0.16c0.142,0,0.278-0.056,0.389-0.16c0.215-0.216,0.215-0.563,0-0.778l-6.161-6.166
				c-0.782-0.782-1.903-1.162-3.002-1.016c-2.056,0.271-4.069-0.411-5.534-1.876c-1.414-1.415-2.114-3.415-1.895-5.401l1.986,1.991
				c0.6,0.6,1.4,0.934,2.247,0.934s1.647-0.33,2.247-0.934l1.332-1.332c0.6-0.6,0.935-1.4,0.935-2.248
				c0-0.846-0.33-1.647-0.935-2.247l-1.986-1.986c1.981-0.22,3.982,0.48,5.396,1.891c1.465,1.465,2.146,3.479,1.877,5.533
				c-0.146,1.099,0.233,2.225,1.016,3.003l6.166,6.165c0.215,0.215,0.562,0.215,0.777,0C31.736,26.813,31.736,26.466,31.521,26.251
				L31.521,26.251z M31.521,26.251"/>
		</g>
	</g>
	<circle fill="none" stroke="#24B34B" stroke-miterlimit="10" cx="20.5" cy="20.474" r="1.333"/>
</g>
</svg>
