<?xml version="1.0" encoding="utf-8"?>
<!-- Generator: Adobe Illustrator 16.0.0, SVG Export Plug-In . SVG Version: 6.00 Build 0)  -->
<!DOCTYPE svg PUBLIC "-//W3C//DTD SVG 1.1//EN" "http://www.w3.org/Graphics/SVG/1.1/DTD/svg11.dtd">
<svg version="1.1" xmlns="http://www.w3.org/2000/svg" xmlns:xlink="http://www.w3.org/1999/xlink" x="0px" y="0px" width="41px"
	 height="41px" viewBox="0 0 41 41" enable-background="new 0 0 41 41" xml:space="preserve">
<g id="Layer_2">
</g>
<g id="Layer_1">
	
		<ellipse fill-rule="evenodd" clip-rule="evenodd" fill="none" stroke="#24B34B" stroke-miterlimit="10" cx="20.789" cy="31.402" rx="13.916" ry="3.625"/>
	<g id="_x36_inbWQ.tif">
		<g>
			<path fill-rule="evenodd" clip-rule="evenodd" fill="#FFFFFF" stroke="#24B34B" stroke-miterlimit="10" d="M20.794,8.944
				c4.812,0.032,8.597,3.97,8.263,8.758c-0.072,1.039-0.472,2.09-0.887,3.063c-1.492,3.492-3.653,6.59-5.855,9.658
				c-0.313,0.436-0.628,0.871-0.964,1.29c-0.358,0.445-0.788,0.459-1.12,0.012c-2.626-3.531-5.103-7.146-6.957-11.169
				c-2.413-5.24,1.195-10.482,5.775-11.39C19.622,9.053,20.211,9.018,20.794,8.944z"/>
			<path fill-rule="evenodd" clip-rule="evenodd" fill="#FFFFFF" stroke="#24B34B" stroke-miterlimit="10" d="M20.821,20.907
				c-2.005,0.005-3.593-1.574-3.595-3.573c-0.002-1.988,1.586-3.606,3.564-3.633c1.952-0.025,3.626,1.627,3.623,3.578
				C24.411,19.331,22.854,20.902,20.821,20.907z"/>
		</g>
	</g>
</g>
</svg>
