<?xml version="1.0" encoding="utf-8"?>
<!-- Generator: Adobe Illustrator 16.0.0, SVG Export Plug-In . SVG Version: 6.00 Build 0)  -->
<!DOCTYPE svg PUBLIC "-//W3C//DTD SVG 1.1//EN" "http://www.w3.org/Graphics/SVG/1.1/DTD/svg11.dtd">
<svg version="1.1" xmlns="http://www.w3.org/2000/svg" xmlns:xlink="http://www.w3.org/1999/xlink" x="0px" y="0px" width="41px"
	 height="41px" viewBox="0 0 41 41" enable-background="new 0 0 41 41" xml:space="preserve">
<g id="Layer_2">
</g>
<g id="Layer_1">
	<g>
		<path fill="none" stroke="#FFFFFF" stroke-miterlimit="10" d="M4.148-103.226h-26.062c-5.5,0-10,4.5-10,10v132.43
			c0,5.5-4.5,10-10,10h-16.593"/>
	</g>
	<g>
		
			<polyline fill="#FFFFFF" stroke="#24B34B" stroke-width="1.5" stroke-linecap="round" stroke-linejoin="round" stroke-miterlimit="10" points="
			32.57,28.168 32.57,3.101 13.606,8.242 13.606,33.31 		"/>
		
			<line fill="#FFFFFF" stroke="#24B34B" stroke-width="1.5" stroke-linecap="round" stroke-linejoin="round" stroke-miterlimit="10" x1="32.57" y1="10.226" x2="13.606" y2="15.366"/>
		
			<path fill="#FFFFFF" stroke="#24B34B" stroke-width="1.5" stroke-linecap="round" stroke-linejoin="round" stroke-miterlimit="10" d="
			M13.606,33.963c0,2.211-1.791,4.002-4.001,4.002c-2.208,0-3.999-1.791-3.999-4.002c0-2.207,1.791-3.998,3.999-3.998
			C11.815,29.965,13.606,31.756,13.606,33.963z"/>
		
			<circle fill="#FFFFFF" stroke="#24B34B" stroke-width="1.5" stroke-linecap="round" stroke-linejoin="round" stroke-miterlimit="10" cx="28.57" cy="28.585" r="4"/>
	</g>
</g>
</svg>
