<?xml version="1.0" encoding="utf-8"?>
<!-- Generator: Adobe Illustrator 16.0.0, SVG Export Plug-In . SVG Version: 6.00 Build 0)  -->
<!DOCTYPE svg PUBLIC "-//W3C//DTD SVG 1.1//EN" "http://www.w3.org/Graphics/SVG/1.1/DTD/svg11.dtd">
<svg version="1.1" xmlns="http://www.w3.org/2000/svg" xmlns:xlink="http://www.w3.org/1999/xlink" x="0px" y="0px" width="41px"
	 height="41px" viewBox="0 0 41 41" enable-background="new 0 0 41 41" xml:space="preserve">
<g id="Layer_2">
</g>
<g id="Layer_1">
	<g>
		<g>
			<path fill="#24B34B" d="M24.173,38.262h-9.919c-2.577,0-4.68-2.098-4.68-4.678v-18.72c0-0.293,0.244-0.536,0.536-0.536h18.119
				c0.296,0,0.627,0.243,0.627,0.536v18.72C28.856,36.164,26.753,38.262,24.173,38.262L24.173,38.262z M10.654,15.402v18.182
				c0,1.986,1.613,3.605,3.6,3.605h9.919c1.986,0,3.605-1.619,3.605-3.605V15.402H10.654z M10.654,15.402"/>
			<path fill="#24B34B" d="M30.588,30.271h-2.273c-0.294,0-0.536-0.243-0.536-0.54c0-0.294,0.242-0.537,0.536-0.537h2.273
				c1.08,0,1.962-0.884,1.962-1.966v-5.051c0-1.082-0.882-1.962-1.962-1.962h-2.273c-0.294,0-0.536-0.241-0.536-0.54
				c0-0.295,0.242-0.537,0.536-0.537h2.273c1.681,0,3.041,1.361,3.041,3.039v5.051C33.629,28.906,32.262,30.271,30.588,30.271
				L30.588,30.271z M30.588,30.271"/>
			<path fill="#24B34B" d="M14.205,29.07c-0.3,0-0.535-0.244-0.535-0.537V15.429c0-0.302,0.235-0.541,0.535-0.541
				c0.301,0,0.537,0.239,0.537,0.541v13.104C14.742,28.826,14.506,29.07,14.205,29.07L14.205,29.07z M14.205,29.07"/>
			<path fill="#24B34B" d="M23.682,23.694c-0.293,0-0.535-0.244-0.535-0.536v-7.999c0-0.303,0.242-0.543,0.535-0.543
				c0.301,0,0.542,0.24,0.542,0.543v7.999C24.224,23.45,23.982,23.694,23.682,23.694L23.682,23.694z M23.682,23.694"/>
			<path fill="#24B34B" d="M19.215,29.07c-0.3,0-0.541-0.244-0.541-0.537V15.429c0-0.302,0.241-0.541,0.541-0.541
				c0.294,0,0.537,0.239,0.537,0.541v13.104C19.752,28.826,19.509,29.07,19.215,29.07L19.215,29.07z M19.215,29.07"/>
			<path fill="#24B34B" d="M28.01,15.402H10.423c-1.952,0-3.534-1.584-3.534-3.528c0-1.95,1.582-3.532,3.534-3.532h0.256
				c0.362-3.181,3.028-5.604,6.281-5.604c1.935,0,3.747,0.882,4.952,2.382c0.52-0.222,1.065-0.337,1.618-0.337
				c2.103,0,3.863,1.53,4.212,3.559h0.268c1.943,0,3.526,1.582,3.526,3.532C31.536,13.818,29.953,15.402,28.01,15.402L28.01,15.402z
				 M10.423,9.419c-1.356,0-2.455,1.1-2.455,2.455c0,1.352,1.099,2.448,2.455,2.448H28.01c1.35,0,2.456-1.097,2.456-2.448
				c0-1.355-1.106-2.455-2.456-2.455h-0.746c-0.288,0-0.525-0.225-0.541-0.516c-0.084-1.706-1.488-3.042-3.192-3.042
				c-0.519,0-1.033,0.137-1.529,0.408c-0.24,0.133-0.546,0.059-0.702-0.168c-0.984-1.429-2.604-2.285-4.339-2.285
				c-2.849,0-5.148,2.229-5.245,5.082c-0.011,0.289-0.248,0.521-0.536,0.521H10.423z M10.423,9.419"/>
		</g>
	</g>
</g>
</svg>
