<?xml version="1.0" encoding="utf-8"?>
<!-- Generator: Adobe Illustrator 16.0.0, SVG Export Plug-In . SVG Version: 6.00 Build 0)  -->
<!DOCTYPE svg PUBLIC "-//W3C//DTD SVG 1.1//EN" "http://www.w3.org/Graphics/SVG/1.1/DTD/svg11.dtd">
<svg version="1.1" id="Layer_1" xmlns="http://www.w3.org/2000/svg" xmlns:xlink="http://www.w3.org/1999/xlink" x="0px" y="0px"
	 width="49.249px" height="56.814px" viewBox="0 0 49.249 56.814" enable-background="new 0 0 49.249 56.814" xml:space="preserve">
<g>
	<g>
		<path fill="none" stroke="#25B04B" stroke-width="2" stroke-linecap="round" stroke-linejoin="round" stroke-miterlimit="10" d="
			M40.249,20.814v28.482c0,3.85-3.033,6.518-6.883,6.518H13.195c-3.85,0-6.946-2.668-6.946-6.518V20.814"/>
	</g>
	<g>
		<path fill="none" stroke="#25B04B" stroke-width="2" stroke-linecap="round" stroke-linejoin="round" stroke-miterlimit="10" d="
			M40.249,25.814c0,0,1.381,0,3.581,0s4.419,3.156,4.419,7.006v4.547c0,3.85-2.219,7.447-4.419,7.447s-3.581,0-3.581,0"/>
	</g>
	
		<line fill="none" stroke="#25B04B" stroke-width="2" stroke-linecap="round" stroke-linejoin="round" stroke-miterlimit="10" x1="11.249" y1="18.814" x2="11.249" y2="39.814"/>
	
		<line fill="none" stroke="#25B04B" stroke-width="2" stroke-linecap="round" stroke-linejoin="round" stroke-miterlimit="10" x1="18.249" y1="18.814" x2="18.249" y2="33.814"/>
	
		<line fill="none" stroke="#25B04B" stroke-width="2" stroke-linecap="round" stroke-linejoin="round" stroke-miterlimit="10" x1="25.249" y1="18.814" x2="25.249" y2="38.814"/>
	
		<path fill="#FFFFFF" stroke="#25B04B" stroke-width="2" stroke-linecap="round" stroke-linejoin="round" stroke-miterlimit="10" d="
		M37.181,10.024c-1.252,0-2.421,0.354-3.42,0.959c-1.101-1.765-3.054-2.941-5.286-2.941c-0.923,0-1.795,0.206-2.584,0.566
		C25.096,4.282,21.314,1,16.758,1c-5.132,0-9.293,4.161-9.293,9.293c0,0.646,0.067,1.277,0.192,1.886
		c-0.464-0.135-0.954-0.212-1.462-0.212C3.326,11.967,1,14.293,1,17.162c0,2.868,2.326,5.194,5.195,5.194
		c2.641,0,4.816-1.972,5.147-4.522c1.526,1.099,3.393,1.752,5.416,1.752c2.391,0,4.563-0.911,6.21-2.393
		c1.046,1.972,3.12,3.316,5.507,3.316c1.038,0,2.014-0.257,2.875-0.706c1.121,2.071,3.312,3.477,5.831,3.477
		c3.659,0,6.629-2.968,6.629-6.628C43.81,12.993,40.84,10.024,37.181,10.024z"/>
</g>
</svg>
