<?xml version="1.0" encoding="utf-8"?>
<!-- Generator: Adobe Illustrator 16.0.0, SVG Export Plug-In . SVG Version: 6.00 Build 0)  -->
<!DOCTYPE svg PUBLIC "-//W3C//DTD SVG 1.1//EN" "http://www.w3.org/Graphics/SVG/1.1/DTD/svg11.dtd">
<svg version="1.1" xmlns="http://www.w3.org/2000/svg" xmlns:xlink="http://www.w3.org/1999/xlink" x="0px" y="0px" width="41px"
	 height="41px" viewBox="0 0 41 41" enable-background="new 0 0 41 41" xml:space="preserve">
<g id="Layer_2">
</g>
<g id="Layer_1">
	<g>
		<g>
			<path fill="none" stroke="#24B34B" stroke-width="1.5" stroke-miterlimit="10" d="M4.917,21.507c0-0.678,0-1.355,0-2.033
				c0.025-0.042,0.069-0.081,0.075-0.126c0.087-0.661,0.136-1.327,0.254-1.98c0.343-1.86,1.035-3.592,2.049-5.185
				c0.791-1.244,1.708-2.379,2.834-3.355c0.982-0.854,2.023-1.609,3.172-2.203c1.735-0.898,3.57-1.523,5.534-1.624
				c1.26-0.066,2.54-0.125,3.785,0.025c1.157,0.14,2.301,0.502,3.414,0.873c1.946,0.647,3.628,1.773,5.118,3.166
				c1.528,1.422,2.725,3.093,3.578,5.015c0.593,1.33,0.991,2.708,1.191,4.147c0.044,0.335,0.105,0.667,0.161,1.001
				c0,0.814,0,1.629,0,2.44c-0.027,0.232-0.05,0.466-0.086,0.695c-0.204,1.258-0.461,2.499-0.924,3.692
				c-0.663,1.718-1.574,3.291-2.802,4.658c-1.562,1.74-3.383,3.135-5.555,4.069c-1.848,0.795-3.773,1.183-5.765,1.28
				c-0.521,0.024-1.05-0.02-1.57-0.078c-0.859-0.098-1.74-0.14-2.563-0.374c-1.154-0.329-2.268-0.806-3.392-1.235
				c-0.218-0.081-0.361-0.087-0.583,0.044c-0.619,0.357-1.258,0.703-1.925,0.957c-1.44,0.553-2.937,0.789-4.479,0.533
				c-0.73-0.123-1.154-0.578-1.275-1.331c-0.081-0.505,0.279-1.099,0.815-1.444c0.4-0.257,0.823-0.521,1.134-0.873
				c0.42-0.475,0.719-1.052,1.109-1.554c0.197-0.251,0.163-0.438-0.009-0.652c-0.823-1.035-1.491-2.159-2.011-3.378
				c-0.563-1.313-0.963-2.666-1.127-4.086C5.035,22.229,4.97,21.869,4.917,21.507z"/>
		</g>
	</g>
	
		<line fill="none" stroke="#24B34B" stroke-width="1.5" stroke-linecap="round" stroke-linejoin="round" stroke-miterlimit="10" x1="12.594" y1="15.715" x2="28.406" y2="15.715"/>
	
		<line fill="none" stroke="#24B34B" stroke-width="1.5" stroke-linecap="round" stroke-linejoin="round" stroke-miterlimit="10" x1="14.709" y1="20.501" x2="30.521" y2="20.501"/>
	
		<line fill="none" stroke="#24B34B" stroke-width="1.5" stroke-linecap="round" stroke-linejoin="round" stroke-miterlimit="10" x1="12.594" y1="25.902" x2="28.406" y2="25.902"/>
</g>
</svg>
