<?xml version="1.0" encoding="utf-8"?>
<!-- Generator: Adobe Illustrator 16.0.0, SVG Export Plug-In . SVG Version: 6.00 Build 0)  -->
<!DOCTYPE svg PUBLIC "-//W3C//DTD SVG 1.1//EN" "http://www.w3.org/Graphics/SVG/1.1/DTD/svg11.dtd">
<svg version="1.1" id="Layer_1" xmlns="http://www.w3.org/2000/svg" xmlns:xlink="http://www.w3.org/1999/xlink" x="0px" y="0px"
	 width="59.49px" height="49.14px" viewBox="0 0 59.49 49.14" enable-background="new 0 0 59.49 49.14" xml:space="preserve">
<g>
	<path fill="none" stroke="#25B04B" stroke-width="2" stroke-linecap="round" stroke-linejoin="round" stroke-miterlimit="10" d="
		M42.049,1c9.08,0,16.441,7.361,16.441,16.44c0,4.093-1.499,7.834-3.973,10.711c0.103,1.857,0.761,4.453,3.471,5.622
		c0,0-6.568,1.246-9.268-1.306c-2.04,0.907-4.297,1.414-6.672,1.414c-9.08,0-16.442-7.36-16.442-16.441
		C25.606,8.361,32.969,1,42.049,1z"/>
	
		<path fill="#FFFFFF" stroke="#25B04B" stroke-width="2" stroke-linecap="round" stroke-linejoin="round" stroke-miterlimit="10" d="
		M20.053,9.809C9.53,9.809,1,18.339,1,28.859c0,4.743,1.737,9.078,4.604,12.413c-0.118,2.151-0.882,5.159-4.021,6.515
		c0,0,7.611,1.443,10.739-1.515c2.363,1.052,4.978,1.64,7.731,1.64c10.521,0,19.052-8.529,19.052-19.053
		C39.104,18.339,30.574,9.809,20.053,9.809z"/>
	<g>
		
			<line fill="none" stroke="#25B04B" stroke-width="2" stroke-linecap="round" stroke-linejoin="round" stroke-miterlimit="10" x1="11.495" y1="23.569" x2="29.495" y2="23.569"/>
		
			<line fill="none" stroke="#25B04B" stroke-width="2" stroke-linecap="round" stroke-linejoin="round" stroke-miterlimit="10" x1="11.495" y1="29.569" x2="29.495" y2="29.569"/>
		
			<line fill="none" stroke="#25B04B" stroke-width="2" stroke-linecap="round" stroke-linejoin="round" stroke-miterlimit="10" x1="11.495" y1="35.569" x2="29.495" y2="35.569"/>
	</g>
</g>
</svg>
