<?xml version="1.0" encoding="utf-8"?>
<!-- Generator: Adobe Illustrator 16.0.0, SVG Export Plug-In . SVG Version: 6.00 Build 0)  -->
<!DOCTYPE svg PUBLIC "-//W3C//DTD SVG 1.1//EN" "http://www.w3.org/Graphics/SVG/1.1/DTD/svg11.dtd">
<svg version="1.1" id="Layer_1" xmlns="http://www.w3.org/2000/svg" xmlns:xlink="http://www.w3.org/1999/xlink" x="0px" y="0px"
	 width="50.493px" height="58.467px" viewBox="24.775 21.533 50.493 58.467" enable-background="new 24.775 21.533 50.493 58.467"
	 xml:space="preserve">
<g>
	<g>
		<path fill="none" stroke="#25B04B" stroke-width="2" stroke-linecap="round" stroke-linejoin="round" stroke-miterlimit="10" d="
			M60.996,44.125c-3.664-2.312-7.018-6.927-2.58-14.458"/>
		<path fill="none" stroke="#25B04B" stroke-width="2" stroke-linecap="round" stroke-linejoin="round" stroke-miterlimit="10" d="
			M74.268,36.3c0-7.603-5.031-13.767-11.392-13.767S51.17,28.697,51.17,36.3c0,6.146,3.83,11.349,7.83,13.118V79h7V49.418
			C70,47.648,74.268,42.446,74.268,36.3z"/>
	</g>
	<g>
		<path fill="none" stroke="#25B04B" stroke-width="2" stroke-linecap="round" stroke-linejoin="round" stroke-miterlimit="10" d="
			M26.957,23l-1.182,9C25.947,38,29,45.517,32,47.098V79h8V46.983c4-1.674,6.072-8.988,6.24-14.65L45.257,23"/>
		
			<line fill="none" stroke="#25B04B" stroke-width="2" stroke-linecap="round" stroke-linejoin="round" stroke-miterlimit="10" x1="33" y1="23" x2="33" y2="36"/>
		
			<line fill="none" stroke="#25B04B" stroke-width="2" stroke-linecap="round" stroke-linejoin="round" stroke-miterlimit="10" x1="39" y1="23" x2="39" y2="36"/>
	</g>
</g>
</svg>
