<?xml version="1.0" encoding="utf-8"?>
<!-- Generator: Adobe Illustrator 16.0.0, SVG Export Plug-In . SVG Version: 6.00 Build 0)  -->
<!DOCTYPE svg PUBLIC "-//W3C//DTD SVG 1.1//EN" "http://www.w3.org/Graphics/SVG/1.1/DTD/svg11.dtd">
<svg version="1.1" xmlns="http://www.w3.org/2000/svg" xmlns:xlink="http://www.w3.org/1999/xlink" x="0px" y="0px" width="41px"
	 height="41px" viewBox="0 0 41 41" enable-background="new 0 0 41 41" xml:space="preserve">
<g id="Layer_2">
</g>
<g id="Layer_1">
	<g>
		<g>
			<g>
				<g>
					<path fill="#24B34B" d="M19.318,27.331c-1.921,0-3.594-0.48-4.747-1.626c-4.271-4.271,0.76-15.809,4.905-19.956
						c4.147-4.146,10.901-4.146,15.049,0c4.146,4.152,4.146,10.904,0,15.049C31.5,23.83,24.52,27.331,19.318,27.331L19.318,27.331z
						 M15.425,24.848c3.587,3.581,14.437-1.087,18.246-4.899c3.675-3.678,3.675-9.664,0-13.342c-3.674-3.679-9.664-3.684-13.34,0
						C16.521,10.413,11.844,21.271,15.425,24.848L15.425,24.848z M15.425,24.848"/>
				</g>
				<g>
					<rect x="3.311" y="2.588" fill="none" width="34.379" height="35.824"/>
				</g>
				<g>
					<path fill="#24B34B" d="M11.097,36.964c-1.02,0-2.037-0.386-2.815-1.164c-0.712-0.715-1.118-1.656-1.155-2.654
						c-0.995-0.031-1.937-0.433-2.649-1.152c-0.754-0.749-1.166-1.749-1.166-2.815c0-1.061,0.412-2.063,1.166-2.808
						c1.466-1.47,4.006-1.506,5.518-0.105l3.416-3.408c0.236-0.237,0.619-0.237,0.855,0c0.234,0.227,0.234,0.609,0,0.844
						l-3.871,3.879c-0.122,0.124-0.294,0.188-0.471,0.177c-0.17-0.016-0.328-0.101-0.434-0.243c-0.107-0.135-0.166-0.219-0.237-0.29
						c-1.048-1.05-2.874-1.05-3.923,0c-0.523,0.527-0.813,1.222-0.813,1.96c0,0.736,0.29,1.431,0.813,1.958
						c0.612,0.617,1.479,0.902,2.35,0.778c0.189-0.031,0.378,0.032,0.512,0.172c0.131,0.129,0.195,0.324,0.172,0.512
						C8.24,33.48,8.517,34.33,9.137,34.95c1.076,1.077,2.838,1.077,3.92,0c1.08-1.081,1.08-2.836,0-3.92
						c-0.074-0.071-0.152-0.13-0.229-0.19c-0.142-0.105-0.259-0.29-0.27-0.467c-0.014-0.169,0.021-0.361,0.145-0.485l3.871-3.871
						c0.234-0.237,0.617-0.237,0.854,0c0.235,0.229,0.235,0.612,0,0.848l-3.417,3.416c1.449,1.562,1.413,4.005-0.1,5.52
						C13.134,36.578,12.115,36.964,11.097,36.964L11.097,36.964z M11.097,36.964"/>
				</g>
				<g>
					<path fill="#24B34B" d="M33.455,15.342c-0.101,0-0.202-0.021-0.291-0.074c-0.293-0.16-0.399-0.524-0.24-0.812
						c0.035-0.076,0.842-1.667-0.343-3.812c-0.163-0.293-0.058-0.656,0.237-0.82c0.288-0.161,0.66-0.056,0.818,0.24
						c1.52,2.752,0.395,4.873,0.349,4.966C33.871,15.224,33.666,15.342,33.455,15.342L33.455,15.342z M33.455,15.342"/>
				</g>
			</g>
		</g>
		<g>
			<path fill="#24B34B" d="M20.916,23.869c-0.333,0-0.623-0.245-0.668-0.584c-0.05-0.369,0.209-0.71,0.578-0.76
				c8.912-1.209,10.379-5.402,10.394-5.444c0.115-0.353,0.495-0.547,0.846-0.438c0.354,0.112,0.553,0.482,0.444,0.838
				c-0.062,0.206-1.644,5.047-11.502,6.382C20.977,23.868,20.946,23.869,20.916,23.869z"/>
		</g>
		<g>
			<path fill="#24B34B" d="M7.68,33.299c-0.373,0-0.675-0.302-0.675-0.676c0-0.211,0.037-2.091,1.295-2.855
				c0.315-0.195,0.733-0.095,0.928,0.226c0.194,0.317,0.094,0.733-0.226,0.927c-0.537,0.328-0.646,1.427-0.646,1.703
				C8.355,32.997,8.054,33.299,7.68,33.299z"/>
		</g>
	</g>
</g>
</svg>
