<?xml version="1.0" encoding="utf-8"?>
<!-- Generator: Adobe Illustrator 16.0.0, SVG Export Plug-In . SVG Version: 6.00 Build 0)  -->
<!DOCTYPE svg PUBLIC "-//W3C//DTD SVG 1.1//EN" "http://www.w3.org/Graphics/SVG/1.1/DTD/svg11.dtd">
<svg version="1.1" xmlns="http://www.w3.org/2000/svg" xmlns:xlink="http://www.w3.org/1999/xlink" x="0px" y="0px"
	 width="14.732px" height="15.909px" viewBox="0 0 14.732 15.909" enable-background="new 0 0 14.732 15.909" xml:space="preserve">
<g id="Layer_2">
</g>
<g id="Layer_1">
	<g>
		<g>
			<path fill="#24B34B" d="M12.417,2.903C11.07,1.552,9.274,0.81,7.366,0.81c-1.907,0-3.704,0.742-5.051,2.094
				c-1.348,1.35-2.094,3.143-2.094,5.051s0.742,3.703,2.094,5.051c1.351,1.348,3.144,2.094,5.051,2.094
				c1.908,0,3.704-0.742,5.051-2.094c1.348-1.35,2.094-3.143,2.094-5.051S13.769,4.249,12.417,2.903L12.417,2.903z M13.863,7.634
				h-2.77c-0.027-1.104-0.182-2.164-0.452-3.107c0.527-0.27,1.021-0.611,1.472-1.014C13.135,4.604,13.786,6.044,13.863,7.634
				L13.863,7.634z M7.688,8.274h2.767c-0.022,1.016-0.163,1.986-0.404,2.855c-0.747-0.301-1.543-0.475-2.362-0.514V8.274z
				 M11.653,3.065c-0.374,0.33-0.781,0.611-1.213,0.844c-0.111-0.309-0.236-0.6-0.376-0.875C9.787,2.485,9.472,2.036,9.125,1.692
				C10.071,1.958,10.934,2.433,11.653,3.065L11.653,3.065z M7.688,1.55C8.355,1.7,8.985,2.313,9.492,3.317
				c0.137,0.271,0.26,0.561,0.367,0.865C9.175,4.466,8.441,4.632,7.688,4.671V1.55z M10.053,4.8
				c0.238,0.861,0.375,1.828,0.398,2.836H7.688v-2.32C8.509,5.278,9.307,5.099,10.053,4.8L10.053,4.8z M7.045,7.634H4.278
				c0.022-1.01,0.16-1.975,0.399-2.84c0.746,0.305,1.546,0.48,2.365,0.516v2.324H7.045z M7.049,1.55v3.121
				c-0.756-0.039-1.49-0.205-2.173-0.488c0.107-0.305,0.23-0.594,0.366-0.865C5.751,2.313,6.381,1.7,7.049,1.55L7.049,1.55z
				 M5.61,1.692C5.264,2.036,4.95,2.489,4.672,3.034C4.535,3.31,4.408,3.601,4.296,3.909C3.863,3.677,3.458,3.396,3.082,3.065
				C3.804,2.433,4.662,1.958,5.61,1.692L5.61,1.692z M2.621,3.513c0.452,0.402,0.944,0.74,1.474,1.014
				C3.823,5.472,3.666,6.53,3.643,7.634H0.872C0.95,6.044,1.601,4.604,2.621,3.513L2.621,3.513z M0.872,8.274h2.771
				C3.668,9.386,3.824,10.45,4.1,11.397c-0.525,0.271-1.018,0.607-1.467,1.01C1.604,11.313,0.95,9.87,0.872,8.274L0.872,8.274z
				 M3.094,12.853c0.373-0.326,0.778-0.607,1.207-0.836c0.111,0.301,0.234,0.59,0.371,0.857c0.278,0.549,0.592,0.998,0.938,1.344
				C4.668,13.952,3.812,13.479,3.094,12.853L3.094,12.853z M7.049,14.358c-0.668-0.15-1.298-0.764-1.807-1.768
				c-0.134-0.266-0.252-0.547-0.361-0.848c0.683-0.283,1.416-0.449,2.168-0.484V14.358z M4.687,11.13
				C4.444,10.261,4.305,9.29,4.28,8.274h2.769v2.342C6.229,10.651,5.433,10.825,4.687,11.13L4.687,11.13z M7.69,14.358v-3.1
				c0.751,0.037,1.484,0.201,2.166,0.484c-0.107,0.301-0.228,0.582-0.361,0.848C8.987,13.595,8.357,14.208,7.69,14.358L7.69,14.358z
				 M9.128,14.216c0.348-0.344,0.662-0.797,0.938-1.346c0.138-0.268,0.26-0.555,0.37-0.857c0.429,0.23,0.835,0.512,1.208,0.838
				C10.927,13.479,10.069,13.952,9.128,14.216L9.128,14.216z M12.108,12.407c-0.449-0.398-0.942-0.738-1.467-1.01
				c0.273-0.947,0.432-2.014,0.458-3.123h2.77C13.787,9.87,13.135,11.313,12.108,12.407L12.108,12.407z M12.108,12.407"/>
		</g>
	</g>
</g>
</svg>
