<?xml version="1.0" encoding="utf-8"?>
<!-- Generator: Adobe Illustrator 16.0.0, SVG Export Plug-In . SVG Version: 6.00 Build 0)  -->
<!DOCTYPE svg PUBLIC "-//W3C//DTD SVG 1.1//EN" "http://www.w3.org/Graphics/SVG/1.1/DTD/svg11.dtd">
<svg version="1.1" id="Layer_1" xmlns="http://www.w3.org/2000/svg" xmlns:xlink="http://www.w3.org/1999/xlink" x="0px" y="0px"
	 width="50px" height="55px" viewBox="0 0 50 55" enable-background="new 0 0 50 55" xml:space="preserve">
<g>
	<g>
		
			<polygon fill="#FFFFFF" stroke="#25B04B" stroke-width="2" stroke-linecap="round" stroke-linejoin="round" stroke-miterlimit="10" points="
			30,44 20,44 20,50.056 23.625,54 26.471,54 30,50.056 		"/>
		<g>
			
				<path fill="#FFFFFF" stroke="#25B04B" stroke-width="2" stroke-linecap="round" stroke-linejoin="round" stroke-miterlimit="10" d="
				M40.221,26.195c0-8.432-6.822-15.267-15.254-15.267S9.752,17.764,9.752,26.195C9.752,32.849,14,38.506,20,40.597V45h10v-4.403
				C36,38.506,40.221,32.849,40.221,26.195z"/>
			
				<line fill="none" stroke="#25B04B" stroke-width="2" stroke-linecap="round" stroke-linejoin="round" stroke-miterlimit="10" x1="25" y1="5" x2="25" y2="1"/>
			<g>
				
					<line fill="none" stroke="#25B04B" stroke-width="2" stroke-linecap="round" stroke-linejoin="round" stroke-miterlimit="10" x1="49" y1="27" x2="46" y2="27"/>
				
					<line fill="none" stroke="#25B04B" stroke-width="2" stroke-linecap="round" stroke-linejoin="round" stroke-miterlimit="10" x1="4" y1="27" x2="1" y2="27"/>
			</g>
			<g>
				
					<line fill="none" stroke="#25B04B" stroke-width="2" stroke-linecap="round" stroke-linejoin="round" stroke-miterlimit="10" x1="45.555" y1="8.119" x2="43.373" y2="10.649"/>
				
					<line fill="none" stroke="#25B04B" stroke-width="2" stroke-linecap="round" stroke-linejoin="round" stroke-miterlimit="10" x1="4.445" y1="8.294" x2="6.977" y2="10.475"/>
			</g>
		</g>
	</g>
	
		<polyline fill="none" stroke="#25B04B" stroke-width="2" stroke-linecap="round" stroke-linejoin="round" stroke-miterlimit="10" points="
		16.667,27.056 21.675,32.367 32.667,22.223 	"/>
</g>
</svg>
