<?xml version="1.0" encoding="utf-8"?>
<!-- Generator: Adobe Illustrator 16.0.0, SVG Export Plug-In . SVG Version: 6.00 Build 0)  -->
<!DOCTYPE svg PUBLIC "-//W3C//DTD SVG 1.1//EN" "http://www.w3.org/Graphics/SVG/1.1/DTD/svg11.dtd">
<svg version="1.1" xmlns="http://www.w3.org/2000/svg" xmlns:xlink="http://www.w3.org/1999/xlink" x="0px" y="0px" width="41px"
	 height="41px" viewBox="0 0 41 41" enable-background="new 0 0 41 41" xml:space="preserve">
<g id="Layer_2">
</g>
<g id="Layer_1">
	<g>
		<g>
			<g>
				<path fill-rule="evenodd" clip-rule="evenodd" fill="#24B34B" d="M12.552,10.448c0.429-0.377,0.825-0.805,1.296-1.119
					c1.361-0.912,2.855-1.108,4.434-0.676c0.21,0.059,0.414,0.131,0.621,0.193c0.358,0.203,0.717,0.406,1.074,0.609
					c0.121,0.107,0.242,0.217,0.365,0.322c0.688,0.6,1.173,1.342,1.562,2.129c0.225,0.082,0.479,0.168,0.588,0.342
					c0.133,0.215-0.055,0.408-0.235,0.568c-0.075,0.064-0.13,0.197-0.131,0.301c-0.009,0.479,0.026,0.959,0.003,1.436
					c-0.037,0.723-0.325,1.389-0.686,1.982c-0.188,0.312-0.221,0.528-0.117,0.828c0.033,0.096,0.061,0.195,0.082,0.295
					c0.289,1.351,0.576,2.701,0.867,4.051c0.135,0.631,0.284,1.259,0.419,1.891c0.271,1.271,0.53,2.547,0.804,3.818
					c0.157,0.73,0.34,1.457,0.5,2.188c0.283,1.304,0.553,2.611,0.834,3.916c0.07,0.325-0.047,0.549-0.37,0.637
					c-0.484,0.135-0.97,0.261-1.44,0.387c0.104,0.833,0.543,1.375,1.268,1.743c0.805,0.407,2.165,0.036,2.647-0.721
					c0.441-0.69,0.497-1.391,0.281-2.165c-0.95-3.4-1.88-6.809-2.825-10.214c-0.311-1.112-0.078-2.116,0.684-2.944
					c0.797-0.863,1.82-1.211,2.999-0.924c1.141,0.279,1.929,1.004,2.259,2.104c0.639,2.134,1.198,4.294,1.791,6.442
					c0.015,0.053,0.023,0.109,0.029,0.143c-0.299,0.08-0.58,0.156-0.908,0.243c-0.02-0.103-0.033-0.228-0.066-0.347
					c-0.561-2.039-1.109-4.082-1.695-6.114c-0.221-0.771-0.699-1.358-1.521-1.569c-0.825-0.209-1.556-0.021-2.165,0.584
					c-0.586,0.582-0.752,1.278-0.535,2.068c0.859,3.119,1.717,6.24,2.582,9.357c0.27,0.963,0.586,1.917,0.332,2.939
					c-0.226,0.397-0.452,0.797-0.677,1.192c-0.029,0.011-0.071,0.011-0.089,0.03c-1.127,1.237-3.006,1.332-4.331,0.158
					c-0.53-0.472-0.819-1.061-0.967-1.76c-0.52,0.148-1.022,0.291-1.528,0.435c-0.279,0.08-0.494,0.013-0.594-0.28
					c-0.387-1.146-0.771-2.295-1.153-3.443c-0.214-0.643-0.42-1.293-0.638-1.937c-0.441-1.306-0.889-2.61-1.329-3.917
					c-0.218-0.645-0.42-1.293-0.638-1.938c-0.438-1.294-0.895-2.585-1.316-3.886c-0.209-0.64-0.384-1.278-1.134-1.508
					c-0.108-0.035-0.185-0.162-0.285-0.232c-0.751-0.516-1.271-1.221-1.634-2.041c-0.086-0.197-0.157-0.283-0.387-0.303
					c-0.15-0.012-0.332-0.177-0.406-0.321c-0.052-0.098,0.017-0.372,0.099-0.408c0.358-0.157,0.28-0.404,0.226-0.68
					c-0.029-0.149-0.021-0.313,0.002-0.467c0.096-0.644,0.202-1.284,0.306-1.926C11.986,11.444,12.27,10.946,12.552,10.448z
					 M20.033,13.394c-0.271,0.056-0.461-0.084-0.516-0.316c-0.059-0.261,0.039-0.479,0.351-0.549
					c0.364-0.081,0.724-0.182,1.09-0.275c-0.763-2.049-2.776-3.193-4.884-2.847c-2.531,0.416-4.125,2.774-3.699,5.224
					c0.396-0.121,0.785-0.246,1.18-0.355c1.541-0.429,3.085-0.848,4.625-1.281c0.264-0.074,0.479-0.057,0.588,0.217
					c0.114,0.283-0.021,0.48-0.271,0.605c-0.13,0.064-0.267,0.123-0.407,0.16c-1.815,0.504-3.634,1.005-5.452,1.507
					c0.785,2.183,3.277,3.396,5.664,2.573c1.822-0.629,3.318-2.722,2.891-4.908C20.805,13.228,20.42,13.312,20.033,13.394z
					 M16.418,21.415c0.221,0.68,0.43,1.336,0.648,1.991c0.121,0.363,0.264,0.718,0.389,1.08c0.455,1.34,0.908,2.681,1.359,4.021
					c0.217,0.644,0.424,1.292,0.637,1.937c0.398,1.205,0.801,2.408,1.197,3.612c0.055,0.166,0.135,0.22,0.321,0.167
					c0.868-0.252,1.737-0.494,2.612-0.721c0.248-0.064,0.289-0.164,0.23-0.41c-0.3-1.28-0.582-2.561-0.865-3.845
					c-0.184-0.829-0.361-1.659-0.537-2.489c-0.323-1.527-0.639-3.056-0.965-4.58c-0.142-0.661-0.303-1.318-0.463-2.01
					C19.565,21.074,18.062,21.488,16.418,21.415z M20.477,17.796c-1.395,1.195-2.988,1.666-4.836,1.324
					c0.134,0.382,0.282,0.731,0.375,1.096c0.07,0.263,0.229,0.299,0.45,0.303c1.574,0.024,3.017-0.371,4.308-1.332
					C20.677,18.738,20.582,18.287,20.477,17.796z"/>
			</g>
		</g>
		<line fill="none" stroke="#24B34B" stroke-miterlimit="10" x1="12.01" y1="15.119" x2="21.791" y2="12.525"/>
		<g>
			
				<line fill="none" stroke="#24B34B" stroke-linecap="round" stroke-linejoin="round" stroke-miterlimit="10" x1="14.112" y1="6.055" x2="13.205" y2="3.619"/>
			
				<line fill="none" stroke="#24B34B" stroke-linecap="round" stroke-linejoin="round" stroke-miterlimit="10" x1="19.743" y1="3.955" x2="18.235" y2="6.072"/>
			
				<line fill="none" stroke="#24B34B" stroke-linecap="round" stroke-linejoin="round" stroke-miterlimit="10" x1="8.548" y1="6.463" x2="10.544" y2="8.127"/>
			
				<line fill="none" stroke="#24B34B" stroke-linecap="round" stroke-linejoin="round" stroke-miterlimit="10" x1="6.96" y1="12.042" x2="9.546" y2="12.29"/>
			
				<line fill="none" stroke="#24B34B" stroke-linecap="round" stroke-linejoin="round" stroke-miterlimit="10" x1="21.945" y1="9.283" x2="24.029" y2="7.732"/>
		</g>
	</g>
</g>
</svg>
